<?xml version="1.0" encoding="iso-8859-1"?>
<!-- Generator: Adobe Illustrator 19.0.0, SVG Export Plug-In . SVG Version: 6.00 Build 0)  -->
<svg xmlns="http://www.w3.org/2000/svg" xmlns:xlink="http://www.w3.org/1999/xlink" version="1.1" id="Capa_1" x="0px" y="0px" viewBox="0 0 512 512" style="enable-background:new 0 0 512 512;" xml:space="preserve" width="512px" height="512px">
<g>
	<g>
		<path d="M256,131.364c-68.725,0-124.636,55.911-124.636,124.636S187.275,380.636,256,380.636S380.636,324.725,380.636,256    S324.725,131.364,256,131.364z" fill="#006DF0"/>
	</g>
</g>
<g>
	<g>
		<path d="M169.59,14.881c-2.385,0.853-4.753,1.748-7.109,2.672H97.037c-43.828,0-79.484,35.656-79.484,79.484v65.443    c-0.924,2.357-1.819,4.725-2.672,7.109l102.572,17.787c15.039-30.238,39.685-54.884,69.923-69.923L169.59,14.881z M74.98,74.98    c-10.108,10.109-19.262,20.917-27.427,32.31V97.037c0-27.286,22.198-49.484,49.484-49.484h10.253    C95.897,55.718,85.089,64.872,74.98,74.98z" fill="#006DF0"/>
	</g>
</g>
<g>
	<g>
		<path d="M256,0c-19.571,0-38.804,2.191-57.427,6.439l17.375,100.196c12.78-3.43,26.204-5.271,40.052-5.271    s27.272,1.84,40.052,5.271L313.427,6.439C294.804,2.191,275.571,0,256,0z" fill="#006DF0"/>
	</g>
</g>
<g>
	<g>
		<path d="M494.447,162.48V97.037c0-43.828-35.656-79.484-79.484-79.484H349.52c-2.357-0.924-4.725-1.819-7.109-2.672    l-17.787,102.572c30.238,15.039,54.884,39.685,69.923,69.923l102.572-17.787C496.266,167.204,495.371,164.836,494.447,162.48z     M464.447,107.29c-8.165-11.393-17.319-22.201-27.428-32.309c-10.109-10.108-20.916-19.263-32.309-27.428h10.253    c27.286,0,49.484,22.198,49.484,49.484V107.29z" fill="#006DF0"/>
	</g>
</g>
<g>
	<g>
		<path d="M394.547,324.624c-15.039,30.238-39.685,54.884-69.923,69.923l17.787,102.572c2.385-0.853,4.753-1.748,7.109-2.672h65.443    c43.828,0,79.484-35.656,79.484-79.484V349.52c0.924-2.357,1.819-4.725,2.672-7.109L394.547,324.624z M464.448,414.964    c0,27.286-22.198,49.484-49.484,49.484H404.71c11.394-8.166,22.201-17.32,32.31-27.428c10.108-10.109,19.263-20.916,27.428-32.309    V414.964z" fill="#006DF0"/>
	</g>
</g>
<g>
	<g>
		<path d="M505.561,198.573l-100.196,17.375c3.43,12.78,5.271,26.204,5.271,40.052s-1.84,27.272-5.271,40.052l100.196,17.375    C509.809,294.804,512,275.571,512,256C512,236.429,509.809,217.196,505.561,198.573z" fill="#006DF0"/>
	</g>
</g>
<g>
	<g>
		<path d="M106.635,215.948L6.439,198.573C2.191,217.196,0,236.429,0,256s2.191,38.804,6.439,57.427l100.196-17.375    c-3.43-12.78-5.271-26.204-5.271-40.052C101.364,242.152,103.204,228.728,106.635,215.948z" fill="#006DF0"/>
	</g>
</g>
<g>
	<g>
		<path d="M296.052,405.365c-12.78,3.43-26.204,5.271-40.052,5.271c-13.848,0-27.272-1.84-40.052-5.271l-17.375,100.196    C217.196,509.809,236.429,512,256,512s38.804-2.191,57.427-6.439L296.052,405.365z" fill="#006DF0"/>
	</g>
</g>
<g>
	<g>
		<path d="M117.453,324.624L14.881,342.41c0.853,2.385,1.748,4.753,2.672,7.109v65.443c0,43.828,35.656,79.484,79.484,79.484h65.443    c2.357,0.924,4.725,1.819,7.109,2.672l17.787-102.572C157.138,379.508,132.492,354.862,117.453,324.624z M97.037,464.447    c-27.286,0-49.484-22.198-49.484-49.484V404.71c8.165,11.393,17.319,22.201,27.428,32.309    c10.109,10.108,20.916,19.263,32.309,27.428H97.037z" fill="#006DF0"/>
	</g>
</g>
<g>
</g>
<g>
</g>
<g>
</g>
<g>
</g>
<g>
</g>
<g>
</g>
<g>
</g>
<g>
</g>
<g>
</g>
<g>
</g>
<g>
</g>
<g>
</g>
<g>
</g>
<g>
</g>
<g>
</g>
</svg>
