<?xml version="1.0" encoding="iso-8859-1"?>
<!-- Generator: Adobe Illustrator 19.0.0, SVG Export Plug-In . SVG Version: 6.00 Build 0)  -->
<svg xmlns="http://www.w3.org/2000/svg" xmlns:xlink="http://www.w3.org/1999/xlink" version="1.1" id="Capa_1" x="0px" y="0px" viewBox="0 0 512 512" style="enable-background:new 0 0 512 512;" xml:space="preserve" width="512px" height="512px">
<g>
	<g>
		<path d="M502.279,306.913l-50.882-50.883c13.204-31.383,9.017-68.407-12.56-96.211v-58.041c0-5.523-4.477-10-10-10h-24.766v-15.15    c0-5.523-4.487-10.01-10.01-10.01H263.016c-17.946,0-33.859,8.867-43.591,22.449c-9.731-13.583-25.645-22.449-43.591-22.449    H44.776c-5.523,0-10.011,4.488-10.011,10.011v15.149H10c-5.523,0-10,4.477-10,10v333.604c0,5.523,4.477,10,10,10h418.838    c5.523,0,10-4.477,10-10v-97.378l16.175,16.175c6.47,6.469,14.965,9.704,23.464,9.704c8.501,0,17.006-3.238,23.481-9.714    l0.321-0.321c6.269-6.268,9.721-14.603,9.721-23.468S508.548,313.18,502.279,306.913z M404.072,111.778h14.766v28.761    c-4.675-3.362-9.614-6.278-14.766-8.725V111.778z M416.683,164.876v0.001c29.658,29.657,29.658,77.913,0,107.571    c-4.31,4.31-9.047,8.039-14.114,11.148c-0.262,0.143-0.518,0.298-0.769,0.465c-11.643,6.954-24.987,10.665-38.902,10.665    c-20.317,0-39.419-7.912-53.785-22.278c-29.657-29.658-29.657-77.914,0-107.571c14.366-14.367,33.468-22.279,53.785-22.279    C383.216,142.598,402.317,150.51,416.683,164.876z M209.419,425.382H20V111.778h14.766v275.348c0,5.523,4.478,10,10,10h164.653    V425.382z M209.419,377.126H54.766v-25.554h121.068c12.65,0,24.435,4.541,33.585,12.865V377.126z M175.835,331.571H54.766V86.618    h121.068c18.522,0,33.591,15.069,33.591,33.591v152.268c0,5.523,4.477,10,10,10c5.522,0,10-4.477,10-10V120.209    c0-18.522,15.068-33.591,33.591-33.591h121.057v38.308c-6.871-1.538-13.962-2.328-21.175-2.328    c-25.659,0-49.783,9.993-67.928,28.137c-37.454,37.455-37.454,98.4,0,135.855c18.145,18.144,42.269,28.136,67.928,28.136    c7.212,0,14.304-0.79,21.175-2.328v19.173H263.016c-15.896,0-31.322,5.436-43.591,15.156    C207.156,337.007,191.73,331.571,175.835,331.571z M384.073,351.572v25.554H229.419v-12.679    c9.151-8.33,20.941-12.875,33.597-12.875H384.073z M418.838,425.382H229.419v-28.256h164.653c5.522,0,10-4.477,10-10v-81.615    c0.512-0.243,1.022-0.491,1.529-0.743l13.237,13.237V425.382z M488.127,339.715l-0.321,0.321c-5.143,5.143-13.508,5.143-18.65,0    l-46.301-46.301c2.766-2.218,5.428-4.602,7.971-7.145c3.892-3.892,7.38-8.038,10.463-12.385l46.849,46.85    c2.491,2.491,3.863,5.802,3.863,9.325C492,333.902,490.628,337.214,488.127,339.715z" fill="#006DF0"/>
	</g>
</g>
<g>
	<g>
		<path d="M426.712,218.663c0-17.069-6.632-33.1-18.673-45.142c-12.042-12.041-28.074-18.672-45.142-18.672    c-17.069,0-33.1,6.631-45.141,18.672c-12.041,12.041-18.673,28.073-18.673,45.141s6.632,33.1,18.673,45.141    c12.041,12.042,28.073,18.673,45.141,18.673c17.07,0,33.101-6.631,45.142-18.673v0.001    C420.08,251.763,426.712,235.731,426.712,218.663z M393.896,249.661c0,0,0,0,0,0.001c-8.264,8.263-19.272,12.814-30.999,12.814    c-11.726,0-22.734-4.551-30.998-12.815c-8.264-8.264-12.815-19.273-12.815-30.999s4.55-22.735,12.815-30.999    c8.264-8.263,19.272-12.814,30.998-12.814c11.727,0,22.736,4.55,30.999,12.814c8.264,8.264,12.815,19.272,12.815,30.999    S402.161,241.397,393.896,249.661z" fill="#006DF0"/>
	</g>
</g>
<g>
	<g>
		<path d="M229.229,304.04c-0.13-0.63-0.319-1.26-0.569-1.87c-0.25-0.6-0.561-1.18-0.92-1.72c-0.37-0.55-0.78-1.06-1.24-1.52    c-0.469-0.46-0.98-0.88-1.52-1.25c-0.55-0.36-1.13-0.66-1.73-0.91c-0.6-0.25-1.23-0.45-1.87-0.58c-1.29-0.26-2.62-0.26-3.91,0    c-0.64,0.13-1.269,0.33-1.87,0.58c-0.599,0.25-1.179,0.55-1.729,0.91c-0.541,0.37-1.061,0.79-1.521,1.25    c-0.46,0.46-0.88,0.97-1.24,1.52c-0.359,0.54-0.67,1.12-0.92,1.72c-0.25,0.61-0.439,1.24-0.569,1.87c-0.13,0.65-0.2,1.31-0.2,1.96    s0.07,1.31,0.2,1.95s0.319,1.27,0.569,1.87c0.25,0.61,0.561,1.19,0.92,1.73c0.36,0.55,0.78,1.06,1.24,1.52    c0.46,0.46,0.981,0.88,1.521,1.24c0.549,0.36,1.129,0.67,1.729,0.92c0.6,0.25,1.23,0.45,1.87,0.57c0.639,0.13,1.3,0.2,1.95,0.2    c0.66,0,1.31-0.07,1.96-0.2c0.64-0.12,1.269-0.32,1.87-0.57c0.6-0.25,1.18-0.56,1.73-0.92c0.54-0.36,1.05-0.78,1.52-1.24    c0.46-0.46,0.87-0.97,1.24-1.52c0.359-0.54,0.67-1.12,0.92-1.73c0.25-0.6,0.439-1.23,0.569-1.87s0.2-1.3,0.2-1.95    C229.429,305.35,229.359,304.69,229.229,304.04z" fill="#006DF0"/>
	</g>
</g>
<g>
</g>
<g>
</g>
<g>
</g>
<g>
</g>
<g>
</g>
<g>
</g>
<g>
</g>
<g>
</g>
<g>
</g>
<g>
</g>
<g>
</g>
<g>
</g>
<g>
</g>
<g>
</g>
<g>
</g>
</svg>
