<?xml version="1.0" encoding="iso-8859-1"?>
<!-- Generator: Adobe Illustrator 19.0.0, SVG Export Plug-In . SVG Version: 6.00 Build 0)  -->
<svg xmlns="http://www.w3.org/2000/svg" xmlns:xlink="http://www.w3.org/1999/xlink" version="1.1" id="Capa_1" x="0px" y="0px" viewBox="0 0 512 512" style="enable-background:new 0 0 512 512;" xml:space="preserve" width="512px" height="512px">
<g>
	<g>
		<path d="M494.447,162.496V97.037c0-43.828-35.656-79.484-79.484-79.484h-65.459C320.109,6.035,288.52,0,256,0    c-32.52,0-64.109,6.035-93.504,17.553H97.037c-43.828,0-79.484,35.656-79.484,79.484v65.459C6.035,191.891,0,223.48,0,256    s6.035,64.109,17.553,93.504v65.459c0,43.828,35.656,79.484,79.484,79.484h65.459C191.891,505.965,223.48,512,256,512    s64.109-6.035,93.504-17.553h65.459c43.828,0,79.484-35.656,79.484-79.484v-65.459C505.965,320.109,512,288.52,512,256    C512,223.48,505.965,191.891,494.447,162.496z M414.963,47.552L414.963,47.552c27.286,0.001,49.484,22.199,49.484,49.485v10.272    c-8.167-11.398-17.315-22.216-27.428-32.329c-10.113-10.112-20.931-19.26-32.329-27.428H414.963z M334.14,43.827    c30.327,11.15,58.137,28.838,81.667,52.368c23.529,23.529,41.217,51.339,52.367,81.666l-88.029,15.265    c-13.395-26.341-34.929-47.875-61.27-61.27L334.14,43.827z M365.178,256c0,60.201-48.977,109.178-109.178,109.178    S146.822,316.201,146.822,256S195.799,146.822,256,146.822S365.178,195.799,365.178,256z M256,30    c16.741,0,33.201,1.815,49.163,5.338l-14.872,85.763c-10.974-2.791-22.462-4.279-34.292-4.279c-11.83,0-23.318,1.488-34.292,4.279    l-14.872-85.763C222.799,31.815,239.259,30,256,30z M47.553,97.037c0-27.286,22.198-49.484,49.484-49.484h10.272    C95.911,55.72,85.093,64.868,74.98,74.98c-10.112,10.113-19.26,20.931-27.427,32.33V97.037z M96.195,96.194    c23.53-23.53,51.339-41.218,81.667-52.368l15.265,88.029c-26.343,13.396-47.876,34.929-61.271,61.271l-88.029-15.265    C54.977,147.533,72.665,119.724,96.195,96.194z M35.338,305.165C31.815,289.201,30,272.741,30,256    c0-16.741,1.815-33.201,5.338-49.163l85.763,14.872c-2.791,10.974-4.279,22.462-4.279,34.292c0,11.83,1.488,23.318,4.279,34.292    L35.338,305.165z M97.037,464.447L97.037,464.447c-27.286,0-49.484-22.198-49.484-49.484V404.69    c8.167,11.398,17.315,22.216,27.428,32.329c10.113,10.112,20.931,19.26,32.329,27.428H97.037z M177.86,468.173    c-30.328-11.15-58.137-28.838-81.667-52.368c-23.529-23.529-41.217-51.339-52.367-81.666l88.029-15.265    c13.395,26.341,34.929,47.875,61.27,61.27L177.86,468.173z M256,482c-16.741,0-33.201-1.815-49.163-5.338l14.872-85.763    c10.974,2.791,22.462,4.279,34.292,4.279c11.83,0,23.318-1.488,34.292-4.279l14.872,85.763C289.201,480.185,272.741,482,256,482z     M464.447,414.963c0,27.286-22.198,49.484-49.484,49.484H404.69c11.398-8.167,22.216-17.315,32.329-27.428    c10.112-10.113,19.26-20.931,27.428-32.329V414.963z M415.805,415.806c-23.53,23.53-51.339,41.218-81.667,52.368l-15.265-88.029    c26.343-13.396,47.876-34.929,61.271-61.271l88.029,15.265C457.023,364.467,439.335,392.276,415.805,415.806z M476.662,305.163    l-85.763-14.872c2.791-10.974,4.279-22.462,4.279-34.292c0-11.83-1.488-23.318-4.279-34.292l85.763-14.872    C480.185,222.799,482,239.259,482,256C482,272.741,480.185,289.201,476.662,305.163z" fill="#006DF0"/>
	</g>
</g>
<g>
</g>
<g>
</g>
<g>
</g>
<g>
</g>
<g>
</g>
<g>
</g>
<g>
</g>
<g>
</g>
<g>
</g>
<g>
</g>
<g>
</g>
<g>
</g>
<g>
</g>
<g>
</g>
<g>
</g>
</svg>
