<?xml version="1.0" encoding="UTF-8" standalone="no"?>
<!-- Generator: Adobe Illustrator 18.0.0, SVG Export Plug-In . SVG Version: 6.00 Build 0)  -->

<svg
   xmlns:dc="http://purl.org/dc/elements/1.1/"
   xmlns:cc="http://creativecommons.org/ns#"
   xmlns:rdf="http://www.w3.org/1999/02/22-rdf-syntax-ns#"
   xmlns:svg="http://www.w3.org/2000/svg"
   xmlns="http://www.w3.org/2000/svg"
   xmlns:sodipodi="http://sodipodi.sourceforge.net/DTD/sodipodi-0.dtd"
   xmlns:inkscape="http://www.inkscape.org/namespaces/inkscape"
   version="1.1"
   id="Capa_1"
   x="0px"
   y="0px"
   viewBox="0 0 216.48341 277.0202"
   xml:space="preserve"
   width="503.53442"
   height="644.34131"
   inkscape:version="0.91 r13725"
   sodipodi:docname="bookmark.svg"><metadata
     id="metadata39"><rdf:RDF><cc:Work
         rdf:about=""><dc:format>image/svg+xml</dc:format><dc:type
           rdf:resource="http://purl.org/dc/dcmitype/StillImage" /><dc:title></dc:title></cc:Work></rdf:RDF></metadata><defs
     id="defs37" /><sodipodi:namedview
     pagecolor="#ffffff"
     bordercolor="#666666"
     borderopacity="1"
     objecttolerance="10"
     gridtolerance="10"
     guidetolerance="10"
     inkscape:pageopacity="0"
     inkscape:pageshadow="2"
     inkscape:window-width="1305"
     inkscape:window-height="744"
     id="namedview35"
     showgrid="false"
     fit-margin-top="0"
     fit-margin-left="0"
     fit-margin-right="0"
     fit-margin-bottom="0"
     inkscape:zoom="0.4609375"
     inkscape:cx="620.5796"
     inkscape:cy="225.62945"
     inkscape:window-x="61"
     inkscape:window-y="24"
     inkscape:window-maximized="1"
     inkscape:current-layer="Capa_1" /><g
     id="g5"
     transform="translate(297.58429,-4.6636228)" /><g
     id="g7"
     transform="translate(297.58429,-4.6636228)" /><g
     id="g9"
     transform="translate(297.58429,-4.6636228)" /><g
     id="g11"
     transform="translate(297.58429,-4.6636228)" /><g
     id="g13"
     transform="translate(297.58429,-4.6636228)" /><g
     id="g15"
     transform="translate(297.58429,-4.6636228)" /><g
     id="g17"
     transform="translate(297.58429,-4.6636228)" /><g
     id="g19"
     transform="translate(297.58429,-4.6636228)" /><g
     id="g21"
     transform="translate(297.58429,-4.6636228)" /><g
     id="g23"
     transform="translate(297.58429,-4.6636228)" /><g
     id="g25"
     transform="translate(297.58429,-4.6636228)" /><g
     id="g27"
     transform="translate(297.58429,-4.6636228)" /><g
     id="g29"
     transform="translate(297.58429,-4.6636228)" /><g
     id="g31"
     transform="translate(297.58429,-4.6636228)" /><g
     id="g33"
     transform="translate(297.58429,-4.6636228)" /><g
     id="g4169"
     transform="matrix(0.52069715,0,0,0.50074058,301.23979,105.39788)" /><g
     id="g4171"
     transform="matrix(0.52069715,0,0,0.50074058,301.23979,105.39788)" /><g
     id="g4173"
     transform="matrix(0.52069715,0,0,0.50074058,301.23979,105.39788)" /><g
     id="g4175"
     transform="matrix(0.52069715,0,0,0.50074058,301.23979,105.39788)" /><g
     id="g4177"
     transform="matrix(0.52069715,0,0,0.50074058,301.23979,105.39788)" /><g
     id="g4179"
     transform="matrix(0.52069715,0,0,0.50074058,301.23979,105.39788)" /><g
     id="g4181"
     transform="matrix(0.52069715,0,0,0.50074058,301.23979,105.39788)" /><g
     id="g4183"
     transform="matrix(0.52069715,0,0,0.50074058,301.23979,105.39788)" /><g
     id="g4185"
     transform="matrix(0.52069715,0,0,0.50074058,301.23979,105.39788)" /><g
     id="g4187"
     transform="matrix(0.52069715,0,0,0.50074058,301.23979,105.39788)" /><g
     id="g4189"
     transform="matrix(0.52069715,0,0,0.50074058,301.23979,105.39788)" /><g
     id="g4191"
     transform="matrix(0.52069715,0,0,0.50074058,301.23979,105.39788)" /><g
     id="g4193"
     transform="matrix(0.52069715,0,0,0.50074058,301.23979,105.39788)" /><g
     id="g4195"
     transform="matrix(0.52069715,0,0,0.50074058,301.23979,105.39788)" /><g
     id="g4197"
     transform="matrix(0.52069715,0,0,0.50074058,301.23979,105.39788)" /><g
     id="g4379"
     transform="translate(297.58429,-4.6636228)"><path
       style="fill:#006df0"
       inkscape:connector-curvature="0"
       id="path3"
       d="m -288.64198,281.68256 0,-241.702398 -8.94231,0 0,-35.3165392 216.483415,0 0,35.3165392 -8.942312,0 0,241.703658 -99.299393,-60.20034 -99.2994,60.19908 z" /><path
       inkscape:connector-curvature="0"
       id="path4359"
       d="m -196.14048,213.79236 c -4.17318,-4.14999 -8.00267,-6.90311 -8.02244,-5.76755 -0.006,0.34265 -0.24508,0.22488 -0.53136,-0.26173 -0.28627,-0.4866 -2.7522,-1.71207 -5.47984,-2.72327 -15.29432,-5.6699 -29.64569,-17.69592 -41.94148,-35.1457 -4.69507,-6.66308 -6.58867,-8.62496 -6.58948,-6.82708 -4.5e-4,1.04127 -7.48179,9.83903 -8.36677,9.83903 -0.46374,0 -1.47415,-0.71534 -2.24535,-1.58964 -1.61336,-1.82902 -1.71038,-0.74643 1.87288,-20.89956 2.96981,-16.70294 3.77857,-19.27645 6.05795,-19.27645 0.90288,0 6.73752,3.282 12.96587,7.29333 16.31348,10.50662 18.05478,11.84857 18.05478,13.91418 0,2.9718 -1.36792,3.69048 -7.04935,3.70354 -7.82145,0.018 -8.31842,0.78657 -3.60844,5.58054 2.12628,2.16421 4.08547,3.78114 4.35374,3.59317 0.26826,-0.18795 0.67056,0.19834 0.89399,0.85842 0.22344,0.6601 0.89447,1.20016 1.4912,1.20016 0.59672,0 1.08495,0.35216 1.08495,0.78257 0,1.00842 3.93038,3.32896 4.51527,2.66587 0.24424,-0.27687 0.44407,-0.0215 0.44407,0.5675 0,0.589 0.19736,0.84717 0.43858,0.57371 0.24122,-0.27347 0.91995,0.0485 1.50831,0.7155 0.58834,0.66701 1.50683,1.02256 2.04108,0.79015 0.53425,-0.23241 0.97137,-0.13313 0.97137,0.22064 0,0.82441 5.00147,2.5844 5.78472,2.03561 0.32536,-0.22797 0.59158,0.0104 0.59158,0.52977 0,0.54884 0.59337,0.76836 1.41694,0.52419 0.77933,-0.23104 1.41696,-0.12513 1.41696,0.23535 0,0.55512 3.14729,1.27731 11.86699,2.72306 l 1.59408,0.26431 0,-50.33085 0,-50.33084 -4.07375,0.576937 c -2.24056,0.317318 -6.3255,0.607437 -9.07765,0.644717 -4.67531,0.0633 -5.13813,-0.09105 -7.04783,-2.35082 -2.35957,-2.792083 -2.64883,-6.77309 -0.73299,-10.087903 1.95288,-3.378883 3.68601,-3.792017 12.69844,-3.026994 l 8.23378,0.698928 0,-6.853986 c 0,-6.83579 -0.008,-6.864523 -2.8919,-10.821398 -4.11016,-5.63877 -5.04672,-8.082226 -5.0899,-13.279448 -0.0677,-8.152738 4.89537,-16.119031 11.42389,-18.336498 6.50505,-2.209497 14.81649,-0.410976 19.12101,4.137616 4.32669,4.572031 6.26366,14.440105 4.0969,20.87212 -0.64162,1.904644 -2.4392,4.871781 -3.99461,6.593641 l -2.82803,3.130655 0,7.521383 c 0,6.781508 0.12196,7.481684 1.23983,7.117814 0.68191,-0.221961 4.6544,-0.649944 8.82776,-0.951072 l 7.58792,-0.547501 2.15364,2.441534 c 2.85692,3.238845 2.98399,7.748597 0.31947,11.338519 -1.74533,2.35148 -2.07993,2.4679 -6.90766,2.40341 -2.79041,-0.0373 -6.90666,-0.327399 -9.14722,-0.644717 l -4.07374,-0.576937 0,50.30497 0,50.30498 4.78222,-0.72079 c 2.63022,-0.39644 4.87304,-1.00501 4.98405,-1.35239 0.11101,-0.34738 0.98775,-0.46128 1.94832,-0.25311 0.96056,0.20817 1.74647,0.009 1.74647,-0.44313 0,-0.4519 0.63763,-0.6326 1.41695,-0.40156 0.77933,0.23105 1.41759,0.10685 1.41837,-0.27599 6.6e-4,-0.38283 1.01413,-0.77693 2.2519,-0.87577 5.32114,-0.42492 21.19141,-11.39616 24.32319,-16.81482 0.6606,-1.14296 0.84921,-1.83157 0.41912,-1.53024 -0.43008,0.30134 -0.78197,0.17975 -0.78197,-0.27021 0,-0.4693 -2.46026,-0.91757 -5.77026,-1.05139 -4.57796,-0.18508 -5.93133,-0.5237 -6.5498,-1.63885 -1.60223,-2.88901 0.31843,-4.60895 17.62226,-15.78051 6.22834,-4.02109 12.05355,-7.31107 12.9449,-7.31107 2.41705,0 3.01143,2.16146 7.27125,26.44198 2.15115,12.26138 2.05297,13.93063 -0.87035,14.79729 -1.31696,0.39044 -2.42718,-0.50636 -6.09045,-4.91958 l -4.47992,-5.39704 -1.19387,1.99402 c -2.77502,4.63486 -11.55032,16.01809 -15.68072,20.3409 -8.92243,9.33804 -19.90473,16.85387 -30.14722,20.63152 -6.83452,2.52071 -8.5401,3.58454 -13.69485,8.54197 -2.46656,2.37214 -5.07822,4.31298 -5.80371,4.31298 -0.72548,0 -3.1708,-1.84144 -5.43404,-4.09209 z m 8.33388,-175.283269 c 1.34818,-1.347362 1.78048,-2.495261 1.66318,-4.416242 -0.22147,-3.626456 -1.22527,-4.656633 -4.44808,-4.564967 -3.53312,0.100492 -5.05884,1.532552 -5.05884,4.748291 0,5.661102 4.16542,7.908997 7.84374,4.232918 z"
       style="opacity:0.78800001;fill:#ffffff;fill-opacity:1;stroke:none;stroke-width:40;stroke-linecap:round;stroke-linejoin:bevel;stroke-miterlimit:4;stroke-dasharray:none;stroke-opacity:1" /><path
       inkscape:connector-curvature="0"
       id="path4361"
       d="m -196.24525,213.09881 c -2.30849,-2.07536 -8.89861,-6.01055 -14.6447,-8.74486 -5.74609,-2.73431 -12.38021,-6.30125 -14.74249,-7.92654 -7.2513,-4.98902 -16.25442,-13.99751 -23.97768,-23.99196 -4.05427,-5.24652 -7.73072,-9.76119 -8.16987,-10.0326 -0.43917,-0.27142 -1.64759,0.8804 -2.68538,2.55959 -1.0378,1.67919 -2.97107,4.07159 -4.29615,5.31644 -2.24641,2.11039 -2.51407,2.15855 -3.96022,0.71239 -1.44614,-1.44614 -1.37634,-2.57326 1.03279,-16.6766 3.05025,-17.85642 4.15382,-21.63347 6.45008,-22.07565 1.67224,-0.32201 13.22031,6.46993 24.70696,14.53128 4.54824,3.19197 5.81812,4.58567 5.59635,6.14205 -0.24998,1.75434 -1.03053,2.07317 -6.07048,2.47956 -8.0978,0.65296 -8.93692,1.84869 -4.39131,6.25749 8.41397,8.16073 13.62141,11.40707 23.23307,14.48366 6.87714,2.20128 17.07179,4.31513 17.71397,3.67294 0.26079,-0.26079 0.47416,-23.00554 0.47416,-50.5439 l 0,-50.069747 -9.1675,0.441445 c -9.12236,0.43927 -9.17749,0.428767 -11.1927,-2.133164 -2.73381,-3.475471 -2.6012,-7.428166 0.34816,-10.377522 2.31805,-2.318055 2.57882,-2.357943 11.1927,-1.712132 l 8.81934,0.661212 0,-6.350742 c 0,-5.81985 -0.33137,-6.899532 -3.96408,-12.915657 -3.51261,-5.817245 -3.96144,-7.20458 -3.94092,-12.181487 0.0519,-12.585634 9.38842,-20.69779 20.86228,-18.126444 8.80426,1.973076 13.10233,7.992595 13.13853,18.400719 0.0219,6.307353 -0.59596,8.027352 -4.8199,13.416998 -2.50449,3.195683 -2.68462,3.956217 -2.43003,10.259972 l 0.27498,6.808443 9.05491,-0.320094 9.05492,-0.320094 1.9408,3.118266 c 2.1942,3.525411 1.92585,7.466903 -0.70768,10.394319 -1.44898,1.610677 -2.58807,1.756066 -10.72322,1.368649 l -9.10202,-0.433457 0.24114,50.458767 0.24115,50.45876 2.79817,-0.32226 c 5.72408,-0.65923 19.20525,-4.73723 23.64028,-7.15107 9.40187,-5.11714 18.63,-13.99257 16.62907,-15.99349 -0.26097,-0.26098 -2.29299,-0.67512 -4.5156,-0.92031 -9.73978,-1.07449 -10.35427,-2.10447 -4.33128,-7.25993 6.01935,-5.15234 24.72237,-16.57992 26.55728,-16.22655 2.11308,0.40694 3.2965,4.59273 6.43456,22.75933 2.37092,13.72556 2.42284,14.63776 0.9164,16.10118 -1.49607,1.45335 -1.90602,1.20859 -6.49237,-3.87633 l -4.89547,-5.42764 -5.88758,8.10349 c -11.97888,16.48739 -23.2648,26.41428 -37.46026,32.94935 -4.28827,1.97416 -8.43435,3.80679 -9.21351,4.07248 -0.77916,0.26571 -3.98856,2.63214 -7.132,5.25874 -3.14345,2.6266 -6.28349,4.75774 -6.97787,4.73586 -0.69439,-0.0219 -3.15129,-1.73778 -5.45978,-3.81315 z m 8.39452,-174.297468 c 1.8549,-1.8549 2.38086,-5.033363 1.2993,-7.851874 -0.38088,-0.992553 -1.7437,-1.475372 -4.16445,-1.475372 -4.18716,0 -6.07247,2.372771 -5.06733,6.377547 1.27759,5.090339 4.56822,6.313961 7.93248,2.949699 z"
       style="opacity:0.78800001;fill:#ffffff;fill-opacity:1;stroke:none;stroke-width:40;stroke-linecap:round;stroke-linejoin:bevel;stroke-miterlimit:4;stroke-dasharray:none;stroke-opacity:1" /><path
       inkscape:connector-curvature="0"
       id="path4363"
       d="m -195.91051,213.15189 c -2.4926,-2.08991 -9.56871,-6.34126 -15.7247,-9.44744 -6.15598,-3.10618 -13.08146,-6.94425 -15.38995,-8.52903 -5.90346,-4.05274 -15.10244,-13.48617 -23.70524,-24.3094 l -7.34682,-9.24311 -1.93965,2.71404 c -1.06681,1.49271 -3.15443,3.95078 -4.63916,5.46237 -2.57982,2.6265 -2.75597,2.67116 -3.97264,1.00727 -1.42318,-1.94631 -1.34131,-2.79547 2.1156,-21.94375 1.25028,-6.92548 2.8921,-13.53742 3.64849,-14.69318 1.29615,-1.98055 1.55705,-2.02545 4.53627,-0.78066 4.39376,1.83584 23.9059,14.7198 26.16078,17.27409 1.82722,2.06985 1.82798,2.11747 0.0549,3.41398 -0.98898,0.72316 -3.52648,1.31484 -5.63887,1.31484 -2.1124,0 -4.65546,0.6098 -5.65126,1.3551 -1.72837,1.2936 -1.5448,1.6058 4.04484,6.87926 3.22045,3.03829 8.26845,6.81031 11.21777,8.38229 5.61638,2.9935 18.89836,7.21683 24.44962,7.77435 l 3.24801,0.3262 0.24122,-50.6228 0.24123,-50.622801 -7.37118,0.614733 c -9.21845,0.768788 -11.82183,0.131029 -13.61424,-3.335109 -1.95095,-3.77271 -1.79485,-5.035859 1.03844,-8.403036 l 2.4545,-2.917008 8.7382,0.641422 8.73819,0.641426 0,-6.234438 c 0,-5.518707 -0.42831,-7.014847 -3.7309,-13.032322 -3.18429,-5.801945 -3.7309,-7.618812 -3.7309,-12.401146 0,-14.274101 12.27132,-22.181583 24.92028,-16.058323 5.79348,2.804572 8.12092,7.570527 8.16082,16.711121 0.0291,6.673778 -0.14193,7.251067 -3.50899,11.841092 -3.4303,4.676273 -3.53111,5.035666 -3.26453,11.638673 l 0.27508,6.8134 8.93457,-0.312867 c 8.70335,-0.304772 8.97492,-0.251306 10.49315,2.065811 2.21104,3.37446 2.00491,8.527054 -0.43888,10.97084 -1.85131,1.851316 -2.63667,1.955466 -10.73435,1.423551 l -8.7369,-0.573906 0.2412,50.575847 0.24121,50.57584 2.79817,-0.28849 c 6.14394,-0.63345 20.47687,-5.31113 25.45015,-8.30589 9.6875,-5.8335 16.81576,-12.87589 14.93579,-14.75585 -0.26984,-0.26984 -2.93035,-0.8877 -5.91226,-1.37301 -6.72718,-1.09488 -7.88111,-2.09055 -5.49054,-4.7376 2.132,-2.36073 17.59588,-12.73716 24.0871,-16.16271 5.41927,-2.85984 6.40697,-2.38132 7.98013,3.86622 1.93477,7.68372 5.50931,30.28481 4.99976,31.61266 -0.93974,2.44894 -3.5791,1.26007 -7.78073,-3.50476 l -4.22315,-4.78924 -5.50142,7.3539 c -13.80472,18.45309 -22.15525,25.75134 -38.75122,33.86808 -5.89949,2.88531 -13.24469,7.22875 -16.32268,9.65208 -3.07799,2.42333 -5.86544,4.40633 -6.19433,4.40665 -0.3289,3.2e-4 -2.63739,-1.70934 -5.12999,-3.79926 z m 8.11292,-174.403684 c 1.39221,-1.392209 1.84003,-2.863631 1.63227,-5.363167 -0.27292,-3.283304 -0.45926,-3.458681 -3.98002,-3.745749 -2.69902,-0.220068 -4.01768,0.141906 -4.8968,1.344177 -1.61189,2.204387 -1.51758,5.088384 0.24887,7.610338 1.81487,2.591099 4.49972,2.650356 6.99568,0.154401 z"
       style="opacity:0.78800001;fill:#ffffff;fill-opacity:1;stroke:none;stroke-width:40;stroke-linecap:round;stroke-linejoin:bevel;stroke-miterlimit:4;stroke-dasharray:none;stroke-opacity:1" /><path
       inkscape:connector-curvature="0"
       id="path4365"
       d="m -196.78176,212.65199 c -3.03941,-2.36484 -10.14318,-6.61636 -15.78617,-9.44779 -5.64298,-2.83143 -12.14874,-6.44455 -14.45723,-8.02913 -5.89531,-4.04664 -15.13574,-13.49686 -23.62369,-24.16002 -3.98142,-5.00174 -7.35904,-9.09406 -7.50583,-9.09406 -0.14679,0 -1.62235,1.88745 -3.27903,4.19434 -3.89863,5.42873 -6.20494,6.73971 -7.52324,4.27644 -0.71245,-1.33124 -0.34897,-5.4854 1.36804,-15.63501 3.6191,-21.39327 4.48108,-23.36476 9.32979,-21.33884 4.34026,1.81348 23.85522,14.71183 26.09159,17.24517 1.82722,2.06985 1.82798,2.11747 0.0549,3.41398 -0.98898,0.72316 -3.52648,1.31484 -5.63887,1.31484 -2.1124,0 -4.65546,0.60786 -5.65126,1.3508 -1.72656,1.28815 -1.53183,1.61102 4.19824,6.96102 3.30482,3.08562 8.34153,6.84855 11.19269,8.36207 5.99372,3.18173 20.4748,7.57695 24.964,7.57695 l 3.07167,0 0,-50.33793 0,-50.33793 -7.34862,0.566688 c -9.23081,0.711827 -11.8345,0.06372 -13.62071,-3.390445 -1.95095,-3.77271 -1.79485,-5.035859 1.03844,-8.403036 l 2.4545,-2.917008 8.7382,0.641422 8.73819,0.641426 0,-6.034852 c 0,-5.2645 -0.48884,-6.962702 -3.82951,-13.303499 -3.58376,-6.802208 -3.80673,-7.671657 -3.47464,-13.548993 0.26816,-4.745752 0.9151,-7.09794 2.64759,-9.626344 6.73614,-9.83075 22.32241,-9.542026 28.00465,0.518764 1.80148,3.189646 2.24498,5.334897 2.27033,10.981808 0.0299,6.677031 -0.14037,7.252027 -3.50811,11.841091 -3.43045,4.67454 -3.53112,5.033396 -3.26453,11.636682 l 0.27508,6.8134 8.92176,-0.332425 c 8.717,-0.324793 8.95784,-0.27738 10.49315,2.065816 2.22141,3.390303 2.02293,8.5414 -0.42338,10.987715 -1.84003,1.840026 -2.67275,1.954322 -10.73434,1.473362 l -8.73955,-0.521408 0.24118,50.526026 0.24118,50.52603 2.33181,-0.25928 c 6.20153,-0.68959 21.10561,-5.43812 25.64169,-8.16961 9.36732,-5.64069 17.00456,-13.1274 15.21595,-14.916 -0.27277,-0.27277 -2.93569,-0.89304 -5.9176,-1.37835 -9.729,-1.58343 -9.08836,-3.14666 5.16712,-12.60826 13.37096,-8.87455 17.78958,-11.03573 19.35741,-9.46789 1.58277,1.58276 5.64802,20.95354 6.44493,30.70989 0.52943,6.48171 0.42217,7.22862 -1.0381,7.22862 -0.89569,0 -3.60515,-2.13864 -6.02102,-4.75255 l -4.39247,-4.75255 -5.48391,7.31754 c -13.43371,17.92548 -21.61596,25.14108 -37.89406,33.41727 -5.83747,2.96791 -13.39314,7.43866 -16.79038,9.935 -3.39723,2.49633 -6.36688,4.53879 -6.59922,4.53879 -0.23233,0 -2.90921,-1.93488 -5.94862,-4.29974 z m 8.93103,-173.850648 c 2.07226,-2.072251 2.47306,-6.4811 0.74618,-8.207976 -1.58472,-1.584722 -5.94044,-1.388109 -7.67499,0.346441 -1.8667,1.866702 -1.87232,5.000487 -0.0137,7.653998 1.80239,2.573269 4.49628,2.653798 6.94255,0.207537 z"
       style="opacity:0.78800001;fill:#ffffff;fill-opacity:1;stroke:none;stroke-width:40;stroke-linecap:round;stroke-linejoin:bevel;stroke-miterlimit:4;stroke-dasharray:none;stroke-opacity:1" /></g><g
     id="g4386"
     transform="translate(297.58429,-4.6636228)"><path
       d="m -288.64198,281.68256 0,-241.702398 -8.94231,0 0,-35.3165392 216.483415,0 0,35.3165392 -8.942312,0 0,241.703658 -99.299393,-60.20034 -99.2994,60.19908 z"
       id="path4388"
       inkscape:connector-curvature="0"
       style="fill:#006df0" /><path
       style="opacity:0.78800001;fill:#ffffff;fill-opacity:1;stroke:none;stroke-width:40;stroke-linecap:round;stroke-linejoin:bevel;stroke-miterlimit:4;stroke-dasharray:none;stroke-opacity:1"
       d="m -196.14048,213.79236 c -4.17318,-4.14999 -8.00267,-6.90311 -8.02244,-5.76755 -0.006,0.34265 -0.24508,0.22488 -0.53136,-0.26173 -0.28627,-0.4866 -2.7522,-1.71207 -5.47984,-2.72327 -15.29432,-5.6699 -29.64569,-17.69592 -41.94148,-35.1457 -4.69507,-6.66308 -6.58867,-8.62496 -6.58948,-6.82708 -4.5e-4,1.04127 -7.48179,9.83903 -8.36677,9.83903 -0.46374,0 -1.47415,-0.71534 -2.24535,-1.58964 -1.61336,-1.82902 -1.71038,-0.74643 1.87288,-20.89956 2.96981,-16.70294 3.77857,-19.27645 6.05795,-19.27645 0.90288,0 6.73752,3.282 12.96587,7.29333 16.31348,10.50662 18.05478,11.84857 18.05478,13.91418 0,2.9718 -1.36792,3.69048 -7.04935,3.70354 -7.82145,0.018 -8.31842,0.78657 -3.60844,5.58054 2.12628,2.16421 4.08547,3.78114 4.35374,3.59317 0.26826,-0.18795 0.67056,0.19834 0.89399,0.85842 0.22344,0.6601 0.89447,1.20016 1.4912,1.20016 0.59672,0 1.08495,0.35216 1.08495,0.78257 0,1.00842 3.93038,3.32896 4.51527,2.66587 0.24424,-0.27687 0.44407,-0.0215 0.44407,0.5675 0,0.589 0.19736,0.84717 0.43858,0.57371 0.24122,-0.27347 0.91995,0.0485 1.50831,0.7155 0.58834,0.66701 1.50683,1.02256 2.04108,0.79015 0.53425,-0.23241 0.97137,-0.13313 0.97137,0.22064 0,0.82441 5.00147,2.5844 5.78472,2.03561 0.32536,-0.22797 0.59158,0.0104 0.59158,0.52977 0,0.54884 0.59337,0.76836 1.41694,0.52419 0.77933,-0.23104 1.41696,-0.12513 1.41696,0.23535 0,0.55512 3.14729,1.27731 11.86699,2.72306 l 1.59408,0.26431 0,-50.33085 0,-50.33084 -4.07375,0.576937 c -2.24056,0.317318 -6.3255,0.607437 -9.07765,0.644717 -4.67531,0.0633 -5.13813,-0.09105 -7.04783,-2.35082 -2.35957,-2.792083 -2.64883,-6.77309 -0.73299,-10.087903 1.95288,-3.378883 3.68601,-3.792017 12.69844,-3.026994 l 8.23378,0.698928 0,-6.853986 c 0,-6.83579 -0.008,-6.864523 -2.8919,-10.821398 -4.11016,-5.63877 -5.04672,-8.082226 -5.0899,-13.279448 -0.0677,-8.152738 4.89537,-16.119031 11.42389,-18.336498 6.50505,-2.209497 14.81649,-0.410976 19.12101,4.137616 4.32669,4.572031 6.26366,14.440105 4.0969,20.87212 -0.64162,1.904644 -2.4392,4.871781 -3.99461,6.593641 l -2.82803,3.130655 0,7.521383 c 0,6.781508 0.12196,7.481684 1.23983,7.117814 0.68191,-0.221961 4.6544,-0.649944 8.82776,-0.951072 l 7.58792,-0.547501 2.15364,2.441534 c 2.85692,3.238845 2.98399,7.748597 0.31947,11.338519 -1.74533,2.35148 -2.07993,2.4679 -6.90766,2.40341 -2.79041,-0.0373 -6.90666,-0.327399 -9.14722,-0.644717 l -4.07374,-0.576937 0,50.30497 0,50.30498 4.78222,-0.72079 c 2.63022,-0.39644 4.87304,-1.00501 4.98405,-1.35239 0.11101,-0.34738 0.98775,-0.46128 1.94832,-0.25311 0.96056,0.20817 1.74647,0.009 1.74647,-0.44313 0,-0.4519 0.63763,-0.6326 1.41695,-0.40156 0.77933,0.23105 1.41759,0.10685 1.41837,-0.27599 6.6e-4,-0.38283 1.01413,-0.77693 2.2519,-0.87577 5.32114,-0.42492 21.19141,-11.39616 24.32319,-16.81482 0.6606,-1.14296 0.84921,-1.83157 0.41912,-1.53024 -0.43008,0.30134 -0.78197,0.17975 -0.78197,-0.27021 0,-0.4693 -2.46026,-0.91757 -5.77026,-1.05139 -4.57796,-0.18508 -5.93133,-0.5237 -6.5498,-1.63885 -1.60223,-2.88901 0.31843,-4.60895 17.62226,-15.78051 6.22834,-4.02109 12.05355,-7.31107 12.9449,-7.31107 2.41705,0 3.01143,2.16146 7.27125,26.44198 2.15115,12.26138 2.05297,13.93063 -0.87035,14.79729 -1.31696,0.39044 -2.42718,-0.50636 -6.09045,-4.91958 l -4.47992,-5.39704 -1.19387,1.99402 c -2.77502,4.63486 -11.55032,16.01809 -15.68072,20.3409 -8.92243,9.33804 -19.90473,16.85387 -30.14722,20.63152 -6.83452,2.52071 -8.5401,3.58454 -13.69485,8.54197 -2.46656,2.37214 -5.07822,4.31298 -5.80371,4.31298 -0.72548,0 -3.1708,-1.84144 -5.43404,-4.09209 z m 8.33388,-175.283269 c 1.34818,-1.347362 1.78048,-2.495261 1.66318,-4.416242 -0.22147,-3.626456 -1.22527,-4.656633 -4.44808,-4.564967 -3.53312,0.100492 -5.05884,1.532552 -5.05884,4.748291 0,5.661102 4.16542,7.908997 7.84374,4.232918 z"
       id="path4390"
       inkscape:connector-curvature="0" /><path
       style="opacity:0.78800001;fill:#ffffff;fill-opacity:1;stroke:none;stroke-width:40;stroke-linecap:round;stroke-linejoin:bevel;stroke-miterlimit:4;stroke-dasharray:none;stroke-opacity:1"
       d="m -196.24525,213.09881 c -2.30849,-2.07536 -8.89861,-6.01055 -14.6447,-8.74486 -5.74609,-2.73431 -12.38021,-6.30125 -14.74249,-7.92654 -7.2513,-4.98902 -16.25442,-13.99751 -23.97768,-23.99196 -4.05427,-5.24652 -7.73072,-9.76119 -8.16987,-10.0326 -0.43917,-0.27142 -1.64759,0.8804 -2.68538,2.55959 -1.0378,1.67919 -2.97107,4.07159 -4.29615,5.31644 -2.24641,2.11039 -2.51407,2.15855 -3.96022,0.71239 -1.44614,-1.44614 -1.37634,-2.57326 1.03279,-16.6766 3.05025,-17.85642 4.15382,-21.63347 6.45008,-22.07565 1.67224,-0.32201 13.22031,6.46993 24.70696,14.53128 4.54824,3.19197 5.81812,4.58567 5.59635,6.14205 -0.24998,1.75434 -1.03053,2.07317 -6.07048,2.47956 -8.0978,0.65296 -8.93692,1.84869 -4.39131,6.25749 8.41397,8.16073 13.62141,11.40707 23.23307,14.48366 6.87714,2.20128 17.07179,4.31513 17.71397,3.67294 0.26079,-0.26079 0.47416,-23.00554 0.47416,-50.5439 l 0,-50.069747 -9.1675,0.441445 c -9.12236,0.43927 -9.17749,0.428767 -11.1927,-2.133164 -2.73381,-3.475471 -2.6012,-7.428166 0.34816,-10.377522 2.31805,-2.318055 2.57882,-2.357943 11.1927,-1.712132 l 8.81934,0.661212 0,-6.350742 c 0,-5.81985 -0.33137,-6.899532 -3.96408,-12.915657 -3.51261,-5.817245 -3.96144,-7.20458 -3.94092,-12.181487 0.0519,-12.585634 9.38842,-20.69779 20.86228,-18.126444 8.80426,1.973076 13.10233,7.992595 13.13853,18.400719 0.0219,6.307353 -0.59596,8.027352 -4.8199,13.416998 -2.50449,3.195683 -2.68462,3.956217 -2.43003,10.259972 l 0.27498,6.808443 9.05491,-0.320094 9.05492,-0.320094 1.9408,3.118266 c 2.1942,3.525411 1.92585,7.466903 -0.70768,10.394319 -1.44898,1.610677 -2.58807,1.756066 -10.72322,1.368649 l -9.10202,-0.433457 0.24114,50.458767 0.24115,50.45876 2.79817,-0.32226 c 5.72408,-0.65923 19.20525,-4.73723 23.64028,-7.15107 9.40187,-5.11714 18.63,-13.99257 16.62907,-15.99349 -0.26097,-0.26098 -2.29299,-0.67512 -4.5156,-0.92031 -9.73978,-1.07449 -10.35427,-2.10447 -4.33128,-7.25993 6.01935,-5.15234 24.72237,-16.57992 26.55728,-16.22655 2.11308,0.40694 3.2965,4.59273 6.43456,22.75933 2.37092,13.72556 2.42284,14.63776 0.9164,16.10118 -1.49607,1.45335 -1.90602,1.20859 -6.49237,-3.87633 l -4.89547,-5.42764 -5.88758,8.10349 c -11.97888,16.48739 -23.2648,26.41428 -37.46026,32.94935 -4.28827,1.97416 -8.43435,3.80679 -9.21351,4.07248 -0.77916,0.26571 -3.98856,2.63214 -7.132,5.25874 -3.14345,2.6266 -6.28349,4.75774 -6.97787,4.73586 -0.69439,-0.0219 -3.15129,-1.73778 -5.45978,-3.81315 z m 8.39452,-174.297468 c 1.8549,-1.8549 2.38086,-5.033363 1.2993,-7.851874 -0.38088,-0.992553 -1.7437,-1.475372 -4.16445,-1.475372 -4.18716,0 -6.07247,2.372771 -5.06733,6.377547 1.27759,5.090339 4.56822,6.313961 7.93248,2.949699 z"
       id="path4392"
       inkscape:connector-curvature="0" /><path
       style="opacity:0.78800001;fill:#ffffff;fill-opacity:1;stroke:none;stroke-width:40;stroke-linecap:round;stroke-linejoin:bevel;stroke-miterlimit:4;stroke-dasharray:none;stroke-opacity:1"
       d="m -195.91051,213.15189 c -2.4926,-2.08991 -9.56871,-6.34126 -15.7247,-9.44744 -6.15598,-3.10618 -13.08146,-6.94425 -15.38995,-8.52903 -5.90346,-4.05274 -15.10244,-13.48617 -23.70524,-24.3094 l -7.34682,-9.24311 -1.93965,2.71404 c -1.06681,1.49271 -3.15443,3.95078 -4.63916,5.46237 -2.57982,2.6265 -2.75597,2.67116 -3.97264,1.00727 -1.42318,-1.94631 -1.34131,-2.79547 2.1156,-21.94375 1.25028,-6.92548 2.8921,-13.53742 3.64849,-14.69318 1.29615,-1.98055 1.55705,-2.02545 4.53627,-0.78066 4.39376,1.83584 23.9059,14.7198 26.16078,17.27409 1.82722,2.06985 1.82798,2.11747 0.0549,3.41398 -0.98898,0.72316 -3.52648,1.31484 -5.63887,1.31484 -2.1124,0 -4.65546,0.6098 -5.65126,1.3551 -1.72837,1.2936 -1.5448,1.6058 4.04484,6.87926 3.22045,3.03829 8.26845,6.81031 11.21777,8.38229 5.61638,2.9935 18.89836,7.21683 24.44962,7.77435 l 3.24801,0.3262 0.24122,-50.6228 0.24123,-50.622801 -7.37118,0.614733 c -9.21845,0.768788 -11.82183,0.131029 -13.61424,-3.335109 -1.95095,-3.77271 -1.79485,-5.035859 1.03844,-8.403036 l 2.4545,-2.917008 8.7382,0.641422 8.73819,0.641426 0,-6.234438 c 0,-5.518707 -0.42831,-7.014847 -3.7309,-13.032322 -3.18429,-5.801945 -3.7309,-7.618812 -3.7309,-12.401146 0,-14.274101 12.27132,-22.181583 24.92028,-16.058323 5.79348,2.804572 8.12092,7.570527 8.16082,16.711121 0.0291,6.673778 -0.14193,7.251067 -3.50899,11.841092 -3.4303,4.676273 -3.53111,5.035666 -3.26453,11.638673 l 0.27508,6.8134 8.93457,-0.312867 c 8.70335,-0.304772 8.97492,-0.251306 10.49315,2.065811 2.21104,3.37446 2.00491,8.527054 -0.43888,10.97084 -1.85131,1.851316 -2.63667,1.955466 -10.73435,1.423551 l -8.7369,-0.573906 0.2412,50.575847 0.24121,50.57584 2.79817,-0.28849 c 6.14394,-0.63345 20.47687,-5.31113 25.45015,-8.30589 9.6875,-5.8335 16.81576,-12.87589 14.93579,-14.75585 -0.26984,-0.26984 -2.93035,-0.8877 -5.91226,-1.37301 -6.72718,-1.09488 -7.88111,-2.09055 -5.49054,-4.7376 2.132,-2.36073 17.59588,-12.73716 24.0871,-16.16271 5.41927,-2.85984 6.40697,-2.38132 7.98013,3.86622 1.93477,7.68372 5.50931,30.28481 4.99976,31.61266 -0.93974,2.44894 -3.5791,1.26007 -7.78073,-3.50476 l -4.22315,-4.78924 -5.50142,7.3539 c -13.80472,18.45309 -22.15525,25.75134 -38.75122,33.86808 -5.89949,2.88531 -13.24469,7.22875 -16.32268,9.65208 -3.07799,2.42333 -5.86544,4.40633 -6.19433,4.40665 -0.3289,3.2e-4 -2.63739,-1.70934 -5.12999,-3.79926 z m 8.11292,-174.403684 c 1.39221,-1.392209 1.84003,-2.863631 1.63227,-5.363167 -0.27292,-3.283304 -0.45926,-3.458681 -3.98002,-3.745749 -2.69902,-0.220068 -4.01768,0.141906 -4.8968,1.344177 -1.61189,2.204387 -1.51758,5.088384 0.24887,7.610338 1.81487,2.591099 4.49972,2.650356 6.99568,0.154401 z"
       id="path4394"
       inkscape:connector-curvature="0" /><path
       style="opacity:0.78800001;fill:#ffffff;fill-opacity:1;stroke:none;stroke-width:40;stroke-linecap:round;stroke-linejoin:bevel;stroke-miterlimit:4;stroke-dasharray:none;stroke-opacity:1"
       d="m -196.78176,212.65199 c -3.03941,-2.36484 -10.14318,-6.61636 -15.78617,-9.44779 -5.64298,-2.83143 -12.14874,-6.44455 -14.45723,-8.02913 -5.89531,-4.04664 -15.13574,-13.49686 -23.62369,-24.16002 -3.98142,-5.00174 -7.35904,-9.09406 -7.50583,-9.09406 -0.14679,0 -1.62235,1.88745 -3.27903,4.19434 -3.89863,5.42873 -6.20494,6.73971 -7.52324,4.27644 -0.71245,-1.33124 -0.34897,-5.4854 1.36804,-15.63501 3.6191,-21.39327 4.48108,-23.36476 9.32979,-21.33884 4.34026,1.81348 23.85522,14.71183 26.09159,17.24517 1.82722,2.06985 1.82798,2.11747 0.0549,3.41398 -0.98898,0.72316 -3.52648,1.31484 -5.63887,1.31484 -2.1124,0 -4.65546,0.60786 -5.65126,1.3508 -1.72656,1.28815 -1.53183,1.61102 4.19824,6.96102 3.30482,3.08562 8.34153,6.84855 11.19269,8.36207 5.99372,3.18173 20.4748,7.57695 24.964,7.57695 l 3.07167,0 0,-50.33793 0,-50.33793 -7.34862,0.566688 c -9.23081,0.711827 -11.8345,0.06372 -13.62071,-3.390445 -1.95095,-3.77271 -1.79485,-5.035859 1.03844,-8.403036 l 2.4545,-2.917008 8.7382,0.641422 8.73819,0.641426 0,-6.034852 c 0,-5.2645 -0.48884,-6.962702 -3.82951,-13.303499 -3.58376,-6.802208 -3.80673,-7.671657 -3.47464,-13.548993 0.26816,-4.745752 0.9151,-7.09794 2.64759,-9.626344 6.73614,-9.83075 22.32241,-9.542026 28.00465,0.518764 1.80148,3.189646 2.24498,5.334897 2.27033,10.981808 0.0299,6.677031 -0.14037,7.252027 -3.50811,11.841091 -3.43045,4.67454 -3.53112,5.033396 -3.26453,11.636682 l 0.27508,6.8134 8.92176,-0.332425 c 8.717,-0.324793 8.95784,-0.27738 10.49315,2.065816 2.22141,3.390303 2.02293,8.5414 -0.42338,10.987715 -1.84003,1.840026 -2.67275,1.954322 -10.73434,1.473362 l -8.73955,-0.521408 0.24118,50.526026 0.24118,50.52603 2.33181,-0.25928 c 6.20153,-0.68959 21.10561,-5.43812 25.64169,-8.16961 9.36732,-5.64069 17.00456,-13.1274 15.21595,-14.916 -0.27277,-0.27277 -2.93569,-0.89304 -5.9176,-1.37835 -9.729,-1.58343 -9.08836,-3.14666 5.16712,-12.60826 13.37096,-8.87455 17.78958,-11.03573 19.35741,-9.46789 1.58277,1.58276 5.64802,20.95354 6.44493,30.70989 0.52943,6.48171 0.42217,7.22862 -1.0381,7.22862 -0.89569,0 -3.60515,-2.13864 -6.02102,-4.75255 l -4.39247,-4.75255 -5.48391,7.31754 c -13.43371,17.92548 -21.61596,25.14108 -37.89406,33.41727 -5.83747,2.96791 -13.39314,7.43866 -16.79038,9.935 -3.39723,2.49633 -6.36688,4.53879 -6.59922,4.53879 -0.23233,0 -2.90921,-1.93488 -5.94862,-4.29974 z m 8.93103,-173.850648 c 2.07226,-2.072251 2.47306,-6.4811 0.74618,-8.207976 -1.58472,-1.584722 -5.94044,-1.388109 -7.67499,0.346441 -1.8667,1.866702 -1.87232,5.000487 -0.0137,7.653998 1.80239,2.573269 4.49628,2.653798 6.94255,0.207537 z"
       id="path4396"
       inkscape:connector-curvature="0" /></g><g
     id="g4398"
     transform="translate(297.58429,-4.6636228)"><path
       style="fill:#006df0"
       inkscape:connector-curvature="0"
       id="path4400"
       d="m -288.64198,281.68256 0,-241.702398 -8.94231,0 0,-35.3165392 216.483415,0 0,35.3165392 -8.942312,0 0,241.703658 -99.299393,-60.20034 -99.2994,60.19908 z" /><path
       inkscape:connector-curvature="0"
       id="path4402"
       d="m -196.14048,213.79236 c -4.17318,-4.14999 -8.00267,-6.90311 -8.02244,-5.76755 -0.006,0.34265 -0.24508,0.22488 -0.53136,-0.26173 -0.28627,-0.4866 -2.7522,-1.71207 -5.47984,-2.72327 -15.29432,-5.6699 -29.64569,-17.69592 -41.94148,-35.1457 -4.69507,-6.66308 -6.58867,-8.62496 -6.58948,-6.82708 -4.5e-4,1.04127 -7.48179,9.83903 -8.36677,9.83903 -0.46374,0 -1.47415,-0.71534 -2.24535,-1.58964 -1.61336,-1.82902 -1.71038,-0.74643 1.87288,-20.89956 2.96981,-16.70294 3.77857,-19.27645 6.05795,-19.27645 0.90288,0 6.73752,3.282 12.96587,7.29333 16.31348,10.50662 18.05478,11.84857 18.05478,13.91418 0,2.9718 -1.36792,3.69048 -7.04935,3.70354 -7.82145,0.018 -8.31842,0.78657 -3.60844,5.58054 2.12628,2.16421 4.08547,3.78114 4.35374,3.59317 0.26826,-0.18795 0.67056,0.19834 0.89399,0.85842 0.22344,0.6601 0.89447,1.20016 1.4912,1.20016 0.59672,0 1.08495,0.35216 1.08495,0.78257 0,1.00842 3.93038,3.32896 4.51527,2.66587 0.24424,-0.27687 0.44407,-0.0215 0.44407,0.5675 0,0.589 0.19736,0.84717 0.43858,0.57371 0.24122,-0.27347 0.91995,0.0485 1.50831,0.7155 0.58834,0.66701 1.50683,1.02256 2.04108,0.79015 0.53425,-0.23241 0.97137,-0.13313 0.97137,0.22064 0,0.82441 5.00147,2.5844 5.78472,2.03561 0.32536,-0.22797 0.59158,0.0104 0.59158,0.52977 0,0.54884 0.59337,0.76836 1.41694,0.52419 0.77933,-0.23104 1.41696,-0.12513 1.41696,0.23535 0,0.55512 3.14729,1.27731 11.86699,2.72306 l 1.59408,0.26431 0,-50.33085 0,-50.33084 -4.07375,0.576937 c -2.24056,0.317318 -6.3255,0.607437 -9.07765,0.644717 -4.67531,0.0633 -5.13813,-0.09105 -7.04783,-2.35082 -2.35957,-2.792083 -2.64883,-6.77309 -0.73299,-10.087903 1.95288,-3.378883 3.68601,-3.792017 12.69844,-3.026994 l 8.23378,0.698928 0,-6.853986 c 0,-6.83579 -0.008,-6.864523 -2.8919,-10.821398 -4.11016,-5.63877 -5.04672,-8.082226 -5.0899,-13.279448 -0.0677,-8.152738 4.89537,-16.119031 11.42389,-18.336498 6.50505,-2.209497 14.81649,-0.410976 19.12101,4.137616 4.32669,4.572031 6.26366,14.440105 4.0969,20.87212 -0.64162,1.904644 -2.4392,4.871781 -3.99461,6.593641 l -2.82803,3.130655 0,7.521383 c 0,6.781508 0.12196,7.481684 1.23983,7.117814 0.68191,-0.221961 4.6544,-0.649944 8.82776,-0.951072 l 7.58792,-0.547501 2.15364,2.441534 c 2.85692,3.238845 2.98399,7.748597 0.31947,11.338519 -1.74533,2.35148 -2.07993,2.4679 -6.90766,2.40341 -2.79041,-0.0373 -6.90666,-0.327399 -9.14722,-0.644717 l -4.07374,-0.576937 0,50.30497 0,50.30498 4.78222,-0.72079 c 2.63022,-0.39644 4.87304,-1.00501 4.98405,-1.35239 0.11101,-0.34738 0.98775,-0.46128 1.94832,-0.25311 0.96056,0.20817 1.74647,0.009 1.74647,-0.44313 0,-0.4519 0.63763,-0.6326 1.41695,-0.40156 0.77933,0.23105 1.41759,0.10685 1.41837,-0.27599 6.6e-4,-0.38283 1.01413,-0.77693 2.2519,-0.87577 5.32114,-0.42492 21.19141,-11.39616 24.32319,-16.81482 0.6606,-1.14296 0.84921,-1.83157 0.41912,-1.53024 -0.43008,0.30134 -0.78197,0.17975 -0.78197,-0.27021 0,-0.4693 -2.46026,-0.91757 -5.77026,-1.05139 -4.57796,-0.18508 -5.93133,-0.5237 -6.5498,-1.63885 -1.60223,-2.88901 0.31843,-4.60895 17.62226,-15.78051 6.22834,-4.02109 12.05355,-7.31107 12.9449,-7.31107 2.41705,0 3.01143,2.16146 7.27125,26.44198 2.15115,12.26138 2.05297,13.93063 -0.87035,14.79729 -1.31696,0.39044 -2.42718,-0.50636 -6.09045,-4.91958 l -4.47992,-5.39704 -1.19387,1.99402 c -2.77502,4.63486 -11.55032,16.01809 -15.68072,20.3409 -8.92243,9.33804 -19.90473,16.85387 -30.14722,20.63152 -6.83452,2.52071 -8.5401,3.58454 -13.69485,8.54197 -2.46656,2.37214 -5.07822,4.31298 -5.80371,4.31298 -0.72548,0 -3.1708,-1.84144 -5.43404,-4.09209 z m 8.33388,-175.283269 c 1.34818,-1.347362 1.78048,-2.495261 1.66318,-4.416242 -0.22147,-3.626456 -1.22527,-4.656633 -4.44808,-4.564967 -3.53312,0.100492 -5.05884,1.532552 -5.05884,4.748291 0,5.661102 4.16542,7.908997 7.84374,4.232918 z"
       style="opacity:0.78800001;fill:#ffffff;fill-opacity:1;stroke:none;stroke-width:40;stroke-linecap:round;stroke-linejoin:bevel;stroke-miterlimit:4;stroke-dasharray:none;stroke-opacity:1" /><path
       inkscape:connector-curvature="0"
       id="path4404"
       d="m -196.24525,213.09881 c -2.30849,-2.07536 -8.89861,-6.01055 -14.6447,-8.74486 -5.74609,-2.73431 -12.38021,-6.30125 -14.74249,-7.92654 -7.2513,-4.98902 -16.25442,-13.99751 -23.97768,-23.99196 -4.05427,-5.24652 -7.73072,-9.76119 -8.16987,-10.0326 -0.43917,-0.27142 -1.64759,0.8804 -2.68538,2.55959 -1.0378,1.67919 -2.97107,4.07159 -4.29615,5.31644 -2.24641,2.11039 -2.51407,2.15855 -3.96022,0.71239 -1.44614,-1.44614 -1.37634,-2.57326 1.03279,-16.6766 3.05025,-17.85642 4.15382,-21.63347 6.45008,-22.07565 1.67224,-0.32201 13.22031,6.46993 24.70696,14.53128 4.54824,3.19197 5.81812,4.58567 5.59635,6.14205 -0.24998,1.75434 -1.03053,2.07317 -6.07048,2.47956 -8.0978,0.65296 -8.93692,1.84869 -4.39131,6.25749 8.41397,8.16073 13.62141,11.40707 23.23307,14.48366 6.87714,2.20128 17.07179,4.31513 17.71397,3.67294 0.26079,-0.26079 0.47416,-23.00554 0.47416,-50.5439 l 0,-50.069747 -9.1675,0.441445 c -9.12236,0.43927 -9.17749,0.428767 -11.1927,-2.133164 -2.73381,-3.475471 -2.6012,-7.428166 0.34816,-10.377522 2.31805,-2.318055 2.57882,-2.357943 11.1927,-1.712132 l 8.81934,0.661212 0,-6.350742 c 0,-5.81985 -0.33137,-6.899532 -3.96408,-12.915657 -3.51261,-5.817245 -3.96144,-7.20458 -3.94092,-12.181487 0.0519,-12.585634 9.38842,-20.69779 20.86228,-18.126444 8.80426,1.973076 13.10233,7.992595 13.13853,18.400719 0.0219,6.307353 -0.59596,8.027352 -4.8199,13.416998 -2.50449,3.195683 -2.68462,3.956217 -2.43003,10.259972 l 0.27498,6.808443 9.05491,-0.320094 9.05492,-0.320094 1.9408,3.118266 c 2.1942,3.525411 1.92585,7.466903 -0.70768,10.394319 -1.44898,1.610677 -2.58807,1.756066 -10.72322,1.368649 l -9.10202,-0.433457 0.24114,50.458767 0.24115,50.45876 2.79817,-0.32226 c 5.72408,-0.65923 19.20525,-4.73723 23.64028,-7.15107 9.40187,-5.11714 18.63,-13.99257 16.62907,-15.99349 -0.26097,-0.26098 -2.29299,-0.67512 -4.5156,-0.92031 -9.73978,-1.07449 -10.35427,-2.10447 -4.33128,-7.25993 6.01935,-5.15234 24.72237,-16.57992 26.55728,-16.22655 2.11308,0.40694 3.2965,4.59273 6.43456,22.75933 2.37092,13.72556 2.42284,14.63776 0.9164,16.10118 -1.49607,1.45335 -1.90602,1.20859 -6.49237,-3.87633 l -4.89547,-5.42764 -5.88758,8.10349 c -11.97888,16.48739 -23.2648,26.41428 -37.46026,32.94935 -4.28827,1.97416 -8.43435,3.80679 -9.21351,4.07248 -0.77916,0.26571 -3.98856,2.63214 -7.132,5.25874 -3.14345,2.6266 -6.28349,4.75774 -6.97787,4.73586 -0.69439,-0.0219 -3.15129,-1.73778 -5.45978,-3.81315 z m 8.39452,-174.297468 c 1.8549,-1.8549 2.38086,-5.033363 1.2993,-7.851874 -0.38088,-0.992553 -1.7437,-1.475372 -4.16445,-1.475372 -4.18716,0 -6.07247,2.372771 -5.06733,6.377547 1.27759,5.090339 4.56822,6.313961 7.93248,2.949699 z"
       style="opacity:0.78800001;fill:#ffffff;fill-opacity:1;stroke:none;stroke-width:40;stroke-linecap:round;stroke-linejoin:bevel;stroke-miterlimit:4;stroke-dasharray:none;stroke-opacity:1" /><path
       inkscape:connector-curvature="0"
       id="path4406"
       d="m -195.91051,213.15189 c -2.4926,-2.08991 -9.56871,-6.34126 -15.7247,-9.44744 -6.15598,-3.10618 -13.08146,-6.94425 -15.38995,-8.52903 -5.90346,-4.05274 -15.10244,-13.48617 -23.70524,-24.3094 l -7.34682,-9.24311 -1.93965,2.71404 c -1.06681,1.49271 -3.15443,3.95078 -4.63916,5.46237 -2.57982,2.6265 -2.75597,2.67116 -3.97264,1.00727 -1.42318,-1.94631 -1.34131,-2.79547 2.1156,-21.94375 1.25028,-6.92548 2.8921,-13.53742 3.64849,-14.69318 1.29615,-1.98055 1.55705,-2.02545 4.53627,-0.78066 4.39376,1.83584 23.9059,14.7198 26.16078,17.27409 1.82722,2.06985 1.82798,2.11747 0.0549,3.41398 -0.98898,0.72316 -3.52648,1.31484 -5.63887,1.31484 -2.1124,0 -4.65546,0.6098 -5.65126,1.3551 -1.72837,1.2936 -1.5448,1.6058 4.04484,6.87926 3.22045,3.03829 8.26845,6.81031 11.21777,8.38229 5.61638,2.9935 18.89836,7.21683 24.44962,7.77435 l 3.24801,0.3262 0.24122,-50.6228 0.24123,-50.622801 -7.37118,0.614733 c -9.21845,0.768788 -11.82183,0.131029 -13.61424,-3.335109 -1.95095,-3.77271 -1.79485,-5.035859 1.03844,-8.403036 l 2.4545,-2.917008 8.7382,0.641422 8.73819,0.641426 0,-6.234438 c 0,-5.518707 -0.42831,-7.014847 -3.7309,-13.032322 -3.18429,-5.801945 -3.7309,-7.618812 -3.7309,-12.401146 0,-14.274101 12.27132,-22.181583 24.92028,-16.058323 5.79348,2.804572 8.12092,7.570527 8.16082,16.711121 0.0291,6.673778 -0.14193,7.251067 -3.50899,11.841092 -3.4303,4.676273 -3.53111,5.035666 -3.26453,11.638673 l 0.27508,6.8134 8.93457,-0.312867 c 8.70335,-0.304772 8.97492,-0.251306 10.49315,2.065811 2.21104,3.37446 2.00491,8.527054 -0.43888,10.97084 -1.85131,1.851316 -2.63667,1.955466 -10.73435,1.423551 l -8.7369,-0.573906 0.2412,50.575847 0.24121,50.57584 2.79817,-0.28849 c 6.14394,-0.63345 20.47687,-5.31113 25.45015,-8.30589 9.6875,-5.8335 16.81576,-12.87589 14.93579,-14.75585 -0.26984,-0.26984 -2.93035,-0.8877 -5.91226,-1.37301 -6.72718,-1.09488 -7.88111,-2.09055 -5.49054,-4.7376 2.132,-2.36073 17.59588,-12.73716 24.0871,-16.16271 5.41927,-2.85984 6.40697,-2.38132 7.98013,3.86622 1.93477,7.68372 5.50931,30.28481 4.99976,31.61266 -0.93974,2.44894 -3.5791,1.26007 -7.78073,-3.50476 l -4.22315,-4.78924 -5.50142,7.3539 c -13.80472,18.45309 -22.15525,25.75134 -38.75122,33.86808 -5.89949,2.88531 -13.24469,7.22875 -16.32268,9.65208 -3.07799,2.42333 -5.86544,4.40633 -6.19433,4.40665 -0.3289,3.2e-4 -2.63739,-1.70934 -5.12999,-3.79926 z m 8.11292,-174.403684 c 1.39221,-1.392209 1.84003,-2.863631 1.63227,-5.363167 -0.27292,-3.283304 -0.45926,-3.458681 -3.98002,-3.745749 -2.69902,-0.220068 -4.01768,0.141906 -4.8968,1.344177 -1.61189,2.204387 -1.51758,5.088384 0.24887,7.610338 1.81487,2.591099 4.49972,2.650356 6.99568,0.154401 z"
       style="opacity:0.78800001;fill:#ffffff;fill-opacity:1;stroke:none;stroke-width:40;stroke-linecap:round;stroke-linejoin:bevel;stroke-miterlimit:4;stroke-dasharray:none;stroke-opacity:1" /><path
       inkscape:connector-curvature="0"
       id="path4408"
       d="m -196.78176,212.65199 c -3.03941,-2.36484 -10.14318,-6.61636 -15.78617,-9.44779 -5.64298,-2.83143 -12.14874,-6.44455 -14.45723,-8.02913 -5.89531,-4.04664 -15.13574,-13.49686 -23.62369,-24.16002 -3.98142,-5.00174 -7.35904,-9.09406 -7.50583,-9.09406 -0.14679,0 -1.62235,1.88745 -3.27903,4.19434 -3.89863,5.42873 -6.20494,6.73971 -7.52324,4.27644 -0.71245,-1.33124 -0.34897,-5.4854 1.36804,-15.63501 3.6191,-21.39327 4.48108,-23.36476 9.32979,-21.33884 4.34026,1.81348 23.85522,14.71183 26.09159,17.24517 1.82722,2.06985 1.82798,2.11747 0.0549,3.41398 -0.98898,0.72316 -3.52648,1.31484 -5.63887,1.31484 -2.1124,0 -4.65546,0.60786 -5.65126,1.3508 -1.72656,1.28815 -1.53183,1.61102 4.19824,6.96102 3.30482,3.08562 8.34153,6.84855 11.19269,8.36207 5.99372,3.18173 20.4748,7.57695 24.964,7.57695 l 3.07167,0 0,-50.33793 0,-50.33793 -7.34862,0.566688 c -9.23081,0.711827 -11.8345,0.06372 -13.62071,-3.390445 -1.95095,-3.77271 -1.79485,-5.035859 1.03844,-8.403036 l 2.4545,-2.917008 8.7382,0.641422 8.73819,0.641426 0,-6.034852 c 0,-5.2645 -0.48884,-6.962702 -3.82951,-13.303499 -3.58376,-6.802208 -3.80673,-7.671657 -3.47464,-13.548993 0.26816,-4.745752 0.9151,-7.09794 2.64759,-9.626344 6.73614,-9.83075 22.32241,-9.542026 28.00465,0.518764 1.80148,3.189646 2.24498,5.334897 2.27033,10.981808 0.0299,6.677031 -0.14037,7.252027 -3.50811,11.841091 -3.43045,4.67454 -3.53112,5.033396 -3.26453,11.636682 l 0.27508,6.8134 8.92176,-0.332425 c 8.717,-0.324793 8.95784,-0.27738 10.49315,2.065816 2.22141,3.390303 2.02293,8.5414 -0.42338,10.987715 -1.84003,1.840026 -2.67275,1.954322 -10.73434,1.473362 l -8.73955,-0.521408 0.24118,50.526026 0.24118,50.52603 2.33181,-0.25928 c 6.20153,-0.68959 21.10561,-5.43812 25.64169,-8.16961 9.36732,-5.64069 17.00456,-13.1274 15.21595,-14.916 -0.27277,-0.27277 -2.93569,-0.89304 -5.9176,-1.37835 -9.729,-1.58343 -9.08836,-3.14666 5.16712,-12.60826 13.37096,-8.87455 17.78958,-11.03573 19.35741,-9.46789 1.58277,1.58276 5.64802,20.95354 6.44493,30.70989 0.52943,6.48171 0.42217,7.22862 -1.0381,7.22862 -0.89569,0 -3.60515,-2.13864 -6.02102,-4.75255 l -4.39247,-4.75255 -5.48391,7.31754 c -13.43371,17.92548 -21.61596,25.14108 -37.89406,33.41727 -5.83747,2.96791 -13.39314,7.43866 -16.79038,9.935 -3.39723,2.49633 -6.36688,4.53879 -6.59922,4.53879 -0.23233,0 -2.90921,-1.93488 -5.94862,-4.29974 z m 8.93103,-173.850648 c 2.07226,-2.072251 2.47306,-6.4811 0.74618,-8.207976 -1.58472,-1.584722 -5.94044,-1.388109 -7.67499,0.346441 -1.8667,1.866702 -1.87232,5.000487 -0.0137,7.653998 1.80239,2.573269 4.49628,2.653798 6.94255,0.207537 z"
       style="opacity:0.78800001;fill:#ffffff;fill-opacity:1;stroke:none;stroke-width:40;stroke-linecap:round;stroke-linejoin:bevel;stroke-miterlimit:4;stroke-dasharray:none;stroke-opacity:1" /></g></svg>