<?xml version="1.0" encoding="UTF-8" standalone="no"?>
<!-- Generator: Adobe Illustrator 19.0.0, SVG Export Plug-In . SVG Version: 6.00 Build 0)  -->

<svg
   xmlns:dc="http://purl.org/dc/elements/1.1/"
   xmlns:cc="http://creativecommons.org/ns#"
   xmlns:rdf="http://www.w3.org/1999/02/22-rdf-syntax-ns#"
   xmlns:svg="http://www.w3.org/2000/svg"
   xmlns="http://www.w3.org/2000/svg"
   xmlns:sodipodi="http://sodipodi.sourceforge.net/DTD/sodipodi-0.dtd"
   xmlns:inkscape="http://www.inkscape.org/namespaces/inkscape"
   version="1.1"
   id="Capa_1"
   x="0px"
   y="0px"
   viewBox="0 0 386.09728 512.001"
   xml:space="preserve"
   width="386.09653"
   height="512"
   inkscape:version="0.91 r13725"
   sodipodi:docname="try1.svg"><metadata
     id="metadata67"><rdf:RDF><cc:Work
         rdf:about=""><dc:format>image/svg+xml</dc:format><dc:type
           rdf:resource="http://purl.org/dc/dcmitype/StillImage" /><dc:title></dc:title></cc:Work></rdf:RDF></metadata><defs
     id="defs65" /><sodipodi:namedview
     pagecolor="#ffffff"
     bordercolor="#666666"
     borderopacity="1"
     objecttolerance="10"
     gridtolerance="10"
     guidetolerance="10"
     inkscape:pageopacity="0"
     inkscape:pageshadow="2"
     inkscape:window-width="1305"
     inkscape:window-height="744"
     id="namedview63"
     showgrid="false"
     inkscape:zoom="0.4609375"
     inkscape:cx="534.7427"
     inkscape:cy="18.355879"
     inkscape:window-x="61"
     inkscape:window-y="24"
     inkscape:window-maximized="1"
     inkscape:current-layer="Capa_1"
     fit-margin-top="0"
     fit-margin-left="0"
     fit-margin-right="0"
     fit-margin-bottom="0" /><g
     id="g33"
     transform="translate(1132.4398,397.04224)" /><g
     id="g35"
     transform="translate(1132.4398,397.04224)" /><g
     id="g37"
     transform="translate(1132.4398,397.04224)" /><g
     id="g39"
     transform="translate(1132.4398,397.04224)" /><g
     id="g41"
     transform="translate(1132.4398,397.04224)" /><g
     id="g43"
     transform="translate(1132.4398,397.04224)" /><g
     id="g45"
     transform="translate(1132.4398,397.04224)" /><g
     id="g47"
     transform="translate(1132.4398,397.04224)" /><g
     id="g49"
     transform="translate(1132.4398,397.04224)" /><g
     id="g51"
     transform="translate(1132.4398,397.04224)" /><g
     id="g53"
     transform="translate(1132.4398,397.04224)" /><g
     id="g55"
     transform="translate(1132.4398,397.04224)" /><g
     id="g57"
     transform="translate(1132.4398,397.04224)" /><g
     id="g59"
     transform="translate(1132.4398,397.04224)" /><g
     id="g61"
     transform="translate(1132.4398,397.04224)" /><g
     id="g4324"
     transform="translate(418.67621,269.32477)"><g
       transform="matrix(0.83660296,0,0,0.83660296,-481.62807,-269.32477)"
       id="g4234"><g
         id="g4194"><path
           style="fill:#006df0"
           inkscape:connector-curvature="0"
           d="m 199.944,36.46 c 0,-20.136 16.323,-36.46 36.46,-36.46 16.756,0 30.724,11.368 34.99,26.766 0.497,-0.026 0.965,-0.148 1.469,-0.148 15.137,0 27.407,12.271 27.407,27.408 0,3.692 -0.753,7.204 -2.076,10.418 l 0.011,-0.001 c 9.384,0 16.991,7.606 16.991,16.99 0,9.383 -7.606,16.991 -16.991,16.991 -9.383,0 -16.99,-7.606 -16.99,-16.991 0,-0.507 0.105,-0.985 0.149,-1.481 -2.691,0.883 -5.514,1.481 -8.5,1.481 -9.152,0 -17.205,-4.531 -22.183,-11.425 -4.386,1.869 -9.208,2.912 -14.277,2.912 -20.136,0 -36.46,-16.324 -36.46,-36.46 z m 16.548,180.617 -49.937,0 c -8.761,0 -15.863,7.102 -15.863,15.863 l 0,106.207 155.305,-74.393 155.311,74.393 0,-106.207 c 0,-8.761 -7.102,-15.863 -15.862,-15.863 l -49.938,0 m 0,-15.863 0,-9.721 c 0,-8.761 -7.102,-15.863 -15.862,-15.863 l -38.529,0 -6.889,-63.13 -56.455,0 -6.888,63.13 -38.529,0 c -8.761,0 -15.863,7.102 -15.863,15.863 l 0,9.721 179.015,0 z M 306,282.345 75.247,392.877 143.578,592.215 c 31.721,-14.751 72.487,-28.507 114.275,-28.507 67.151,0 121.121,31.984 192.013,48.292 l 11.775,0 L 536.753,392.877 306,282.345 Z"
           id="path4196" /></g><g
         id="g4198" /><g
         id="g4200" /><g
         id="g4202" /><g
         id="g4204" /><g
         id="g4206" /><g
         id="g4208" /><g
         id="g4210" /><g
         id="g4212" /><g
         id="g4214" /><g
         id="g4216" /><g
         id="g4218" /><g
         id="g4220" /><g
         id="g4222" /><g
         id="g4224" /><g
         id="g4226" /></g><g
       style="fill:#ffffff"
       transform="matrix(0.42367456,7.92504e-4,-8.9997561e-4,0.40885757,-331.83831,-4.4156268)"
       id="g4300"><g
         style="fill:#ffffff"
         id="g4254"><g
           style="fill:#ffffff"
           id="g4256"><path
             style="fill:#ffffff"
             inkscape:connector-curvature="0"
             d="m 243.225,333.382 c -13.6,0 -25,11.4 -25,25 0,13.6 11.4,25 25,25 13.1,0 25,-11.4 24.4,-24.4 0.6,-14.3 -10.7,-25.6 -24.4,-25.6 z"
             id="path4258" /><path
             style="fill:#ffffff"
             inkscape:connector-curvature="0"
             d="m 474.625,421.982 c 15.7,-27.1 15.8,-59.4 0.2,-86.4 l -156.6,-271.2 c -15.5,-27.3 -43.5,-43.5 -74.9,-43.5 -31.4,0 -59.4,16.3 -74.9,43.4 l -156.8,271.5 c -15.6,27.3 -15.5,59.8 0.3,86.9 15.6,26.8 43.5,42.9 74.7,42.9 l 312.8,0 c 31.3,0 59.4,-16.3 75.2,-43.6 z m -34,-19.6 c -8.7,15 -24.1,23.9 -41.3,23.9 l -312.8,0 c -17,0 -32.3,-8.7 -40.8,-23.4 -8.6,-14.9 -8.7,-32.7 -0.1,-47.7 l 156.8,-271.4 c 8.5,-14.9 23.7,-23.7 40.9,-23.7 17.1,0 32.4,8.9 40.9,23.8 l 156.7,271.4 c 8.4,14.6 8.3,32.2 -0.3,47.1 z"
             id="path4260" /><path
             style="fill:#ffffff"
             inkscape:connector-curvature="0"
             d="m 237.025,157.882 c -11.9,3.4 -19.3,14.2 -19.3,27.3 0.6,7.9 1.1,15.9 1.7,23.8 1.7,30.1 3.4,59.6 5.1,89.7 0.6,10.2 8.5,17.6 18.7,17.6 10.2,0 18.2,-7.9 18.7,-18.2 0,-6.2 0,-11.9 0.6,-18.2 1.1,-19.3 2.3,-38.6 3.4,-57.9 0.6,-12.5 1.7,-25 2.3,-37.5 0,-4.5 -0.6,-8.5 -2.3,-12.5 -5.1,-11.2 -17,-16.9 -28.9,-14.1 z"
             id="path4262" /></g></g><g
         style="fill:#ffffff"
         id="g4264" /><g
         style="fill:#ffffff"
         id="g4266" /><g
         style="fill:#ffffff"
         id="g4268" /><g
         style="fill:#ffffff"
         id="g4270" /><g
         style="fill:#ffffff"
         id="g4272" /><g
         style="fill:#ffffff"
         id="g4274" /><g
         style="fill:#ffffff"
         id="g4276" /><g
         style="fill:#ffffff"
         id="g4278" /><g
         style="fill:#ffffff"
         id="g4280" /><g
         style="fill:#ffffff"
         id="g4282" /><g
         style="fill:#ffffff"
         id="g4284" /><g
         style="fill:#ffffff"
         id="g4286" /><g
         style="fill:#ffffff"
         id="g4288" /><g
         style="fill:#ffffff"
         id="g4290" /><g
         style="fill:#ffffff"
         id="g4292" /></g></g></svg>