<?xml version="1.0" encoding="UTF-8" standalone="no"?>
<!-- Generator: Adobe Illustrator 19.0.0, SVG Export Plug-In . SVG Version: 6.00 Build 0)  -->

<svg
   xmlns:dc="http://purl.org/dc/elements/1.1/"
   xmlns:cc="http://creativecommons.org/ns#"
   xmlns:rdf="http://www.w3.org/1999/02/22-rdf-syntax-ns#"
   xmlns:svg="http://www.w3.org/2000/svg"
   xmlns="http://www.w3.org/2000/svg"
   xmlns:sodipodi="http://sodipodi.sourceforge.net/DTD/sodipodi-0.dtd"
   xmlns:inkscape="http://www.inkscape.org/namespaces/inkscape"
   version="1.1"
   id="Layer_1"
   x="0px"
   y="0px"
   viewBox="0 0 460.00096 460.00197"
   xml:space="preserve"
   width="511.99884"
   height="511.99997"
   inkscape:version="0.91 r13725"
   sodipodi:docname="tab.svg"><metadata
     id="metadata49"><rdf:RDF><cc:Work
         rdf:about=""><dc:format>image/svg+xml</dc:format><dc:type
           rdf:resource="http://purl.org/dc/dcmitype/StillImage" /><dc:title></dc:title></cc:Work></rdf:RDF></metadata><defs
     id="defs47" /><sodipodi:namedview
     pagecolor="#ffffff"
     bordercolor="#666666"
     borderopacity="1"
     objecttolerance="10"
     gridtolerance="10"
     guidetolerance="10"
     inkscape:pageopacity="0"
     inkscape:pageshadow="2"
     inkscape:window-width="1305"
     inkscape:window-height="744"
     id="namedview45"
     showgrid="false"
     fit-margin-top="0"
     fit-margin-left="0"
     fit-margin-right="0"
     fit-margin-bottom="0"
     inkscape:zoom="0.4609375"
     inkscape:cx="390.28141"
     inkscape:cy="193.08472"
     inkscape:window-x="61"
     inkscape:window-y="24"
     inkscape:window-maximized="1"
     inkscape:current-layer="Layer_1" /><g
     id="g5"
     transform="translate(-0.00101371,-1.3709129e-5)"><g
       id="g7" /></g><g
     id="g15"
     transform="translate(263.13575,56.52566)" /><g
     id="g17"
     transform="translate(263.13575,56.52566)" /><g
     id="g19"
     transform="translate(263.13575,56.52566)" /><g
     id="g21"
     transform="translate(263.13575,56.52566)" /><g
     id="g23"
     transform="translate(263.13575,56.52566)" /><g
     id="g25"
     transform="translate(263.13575,56.52566)" /><g
     id="g27"
     transform="translate(263.13575,56.52566)" /><g
     id="g29"
     transform="translate(263.13575,56.52566)" /><g
     id="g31"
     transform="translate(263.13575,56.52566)" /><g
     id="g33"
     transform="translate(263.13575,56.52566)" /><g
     id="g35"
     transform="translate(263.13575,56.52566)" /><g
     id="g37"
     transform="translate(263.13575,56.52566)" /><g
     id="g39"
     transform="translate(263.13575,56.52566)" /><g
     id="g41"
     transform="translate(263.13575,56.52566)" /><g
     id="g43"
     transform="translate(263.13575,56.52566)" /><g
     id="g4247"
     transform="translate(263.13575,56.52566)"><path
       d="M 427.138,0 32.865,0 C 14.743,0 0.001,14.743 0.001,32.865 l 0,394.272 c 0,18.122 14.743,32.865 32.865,32.865 l 394.271,0 c 18.122,0 32.865,-14.743 32.865,-32.865 l 0,-394.272 C 460.003,14.743 445.26,0 427.138,0 Z M 30.001,32.865 c 0,-1.58 1.285,-2.865 2.865,-2.865 l 394.271,0 c 1.58,0 2.865,1.285 2.865,2.865 l 0,82.863 -400.001,0 0,-82.863 z m 400.002,394.272 c 0,1.58 -1.285,2.865 -2.865,2.865 l -394.273,0 c -1.58,0 -2.865,-1.285 -2.865,-2.865 l 0,-281.41 400.002,0 0,281.41 z"
       id="path9"
       inkscape:connector-curvature="0"
       style="fill:#006df0"
       transform="translate(-263.13676,-56.525674)" /><circle
       cx="76.849998"
       cy="72.363998"
       r="26.249001"
       id="circle11"
       style="fill:#006df0"
       transform="translate(-263.13676,-56.525674)" /><g
       inkscape:transform-center-y="-9.7458051"
       inkscape:transform-center-x="-7.7966441"
       transform="matrix(0.85814117,0,0,0.78948988,-132.54298,103.30552)"
       id="g4220"><g
         id="g4178"><path
           style="fill:#006df0"
           inkscape:connector-curvature="0"
           d="m 266.422,0 -97.625,0 c -9.65,0 -17.5,7.851 -17.5,17.5 0,9.649 7.85,17.5 17.5,17.5 l 55.377,0 -92.375,92.374 c -3.307,3.305 -5.127,7.699 -5.127,12.375 0,4.676 1.819,9.069 5.125,12.371 3.306,3.309 7.699,5.13 12.375,5.13 4.674,0 9.069,-1.82 12.376,-5.127 l 92.374,-92.375 0,55.377 c 0,9.649 7.851,17.5 17.5,17.5 9.649,0 17.5,-7.851 17.5,-17.5 l 0,-97.625 c 0,-9.649 -7.851,-17.5 -17.5,-17.5 z"
           id="path4180" /><path
           style="fill:#006df0"
           inkscape:connector-curvature="0"
           d="m 201.137,253.922 -171.137,0 0,-171.137 128.711,0 30,-30 -173.711,0 c -8.284,0 -15,6.716 -15,15 l 0,201.137 c 0,8.284 6.716,15 15,15 l 201.137,0 c 8.284,0 15,-6.716 15,-15 l 0,-173.711 -30,30 0,128.711 z"
           id="path4182" /></g><g
         id="g4184" /><g
         id="g4186" /><g
         id="g4188" /><g
         id="g4190" /><g
         id="g4192" /><g
         id="g4194" /><g
         id="g4196" /><g
         id="g4198" /><g
         id="g4200" /><g
         id="g4202" /><g
         id="g4204" /><g
         id="g4206" /><g
         id="g4208" /><g
         id="g4210" /><g
         id="g4212" /></g></g><g
     id="g4270"
     transform="translate(263.13575,56.52566)"><path
       transform="translate(-263.13676,-56.525674)"
       style="fill:#006df0"
       inkscape:connector-curvature="0"
       id="path4272"
       d="M 427.138,0 32.865,0 C 14.743,0 0.001,14.743 0.001,32.865 l 0,394.272 c 0,18.122 14.743,32.865 32.865,32.865 l 394.271,0 c 18.122,0 32.865,-14.743 32.865,-32.865 l 0,-394.272 C 460.003,14.743 445.26,0 427.138,0 Z M 30.001,32.865 c 0,-1.58 1.285,-2.865 2.865,-2.865 l 394.271,0 c 1.58,0 2.865,1.285 2.865,2.865 l 0,82.863 -400.001,0 0,-82.863 z m 400.002,394.272 c 0,1.58 -1.285,2.865 -2.865,2.865 l -394.273,0 c -1.58,0 -2.865,-1.285 -2.865,-2.865 l 0,-281.41 400.002,0 0,281.41 z" /><circle
       transform="translate(-263.13676,-56.525674)"
       style="fill:#006df0"
       id="circle4274"
       r="26.249001"
       cy="72.363998"
       cx="76.849998" /><g
       id="g4276"
       transform="matrix(0.85814117,0,0,0.78948988,-132.54298,103.30552)"
       inkscape:transform-center-x="-7.7966441"
       inkscape:transform-center-y="-9.7458051"><g
         id="g4278"><path
           id="path4280"
           d="m 266.422,0 -97.625,0 c -9.65,0 -17.5,7.851 -17.5,17.5 0,9.649 7.85,17.5 17.5,17.5 l 55.377,0 -92.375,92.374 c -3.307,3.305 -5.127,7.699 -5.127,12.375 0,4.676 1.819,9.069 5.125,12.371 3.306,3.309 7.699,5.13 12.375,5.13 4.674,0 9.069,-1.82 12.376,-5.127 l 92.374,-92.375 0,55.377 c 0,9.649 7.851,17.5 17.5,17.5 9.649,0 17.5,-7.851 17.5,-17.5 l 0,-97.625 c 0,-9.649 -7.851,-17.5 -17.5,-17.5 z"
           inkscape:connector-curvature="0"
           style="fill:#006df0" /><path
           id="path4282"
           d="m 201.137,253.922 -171.137,0 0,-171.137 128.711,0 30,-30 -173.711,0 c -8.284,0 -15,6.716 -15,15 l 0,201.137 c 0,8.284 6.716,15 15,15 l 201.137,0 c 8.284,0 15,-6.716 15,-15 l 0,-173.711 -30,30 0,128.711 z"
           inkscape:connector-curvature="0"
           style="fill:#006df0" /></g><g
         id="g4284" /><g
         id="g4286" /><g
         id="g4288" /><g
         id="g4290" /><g
         id="g4292" /><g
         id="g4294" /><g
         id="g4296" /><g
         id="g4298" /><g
         id="g4300" /><g
         id="g4302" /><g
         id="g4304" /><g
         id="g4306" /><g
         id="g4308" /><g
         id="g4310" /><g
         id="g4312" /></g></g><g
     id="g4314"
     transform="translate(263.13575,56.52566)"><path
       d="M 427.138,0 32.865,0 C 14.743,0 0.001,14.743 0.001,32.865 l 0,394.272 c 0,18.122 14.743,32.865 32.865,32.865 l 394.271,0 c 18.122,0 32.865,-14.743 32.865,-32.865 l 0,-394.272 C 460.003,14.743 445.26,0 427.138,0 Z M 30.001,32.865 c 0,-1.58 1.285,-2.865 2.865,-2.865 l 394.271,0 c 1.58,0 2.865,1.285 2.865,2.865 l 0,82.863 -400.001,0 0,-82.863 z m 400.002,394.272 c 0,1.58 -1.285,2.865 -2.865,2.865 l -394.273,0 c -1.58,0 -2.865,-1.285 -2.865,-2.865 l 0,-281.41 400.002,0 0,281.41 z"
       id="path4316"
       inkscape:connector-curvature="0"
       style="fill:#006df0"
       transform="translate(-263.13676,-56.525674)" /><circle
       cx="76.849998"
       cy="72.363998"
       r="26.249001"
       id="circle4318"
       style="fill:#006df0"
       transform="translate(-263.13676,-56.525674)" /><g
       inkscape:transform-center-y="-9.7458051"
       inkscape:transform-center-x="-7.7966441"
       transform="matrix(0.85814117,0,0,0.78948988,-132.54298,103.30552)"
       id="g4320"><g
         id="g4322"><path
           style="fill:#006df0"
           inkscape:connector-curvature="0"
           d="m 266.422,0 -97.625,0 c -9.65,0 -17.5,7.851 -17.5,17.5 0,9.649 7.85,17.5 17.5,17.5 l 55.377,0 -92.375,92.374 c -3.307,3.305 -5.127,7.699 -5.127,12.375 0,4.676 1.819,9.069 5.125,12.371 3.306,3.309 7.699,5.13 12.375,5.13 4.674,0 9.069,-1.82 12.376,-5.127 l 92.374,-92.375 0,55.377 c 0,9.649 7.851,17.5 17.5,17.5 9.649,0 17.5,-7.851 17.5,-17.5 l 0,-97.625 c 0,-9.649 -7.851,-17.5 -17.5,-17.5 z"
           id="path4324" /><path
           style="fill:#006df0"
           inkscape:connector-curvature="0"
           d="m 201.137,253.922 -171.137,0 0,-171.137 128.711,0 30,-30 -173.711,0 c -8.284,0 -15,6.716 -15,15 l 0,201.137 c 0,8.284 6.716,15 15,15 l 201.137,0 c 8.284,0 15,-6.716 15,-15 l 0,-173.711 -30,30 0,128.711 z"
           id="path4326" /></g><g
         id="g4328" /><g
         id="g4330" /><g
         id="g4332" /><g
         id="g4334" /><g
         id="g4336" /><g
         id="g4338" /><g
         id="g4340" /><g
         id="g4342" /><g
         id="g4344" /><g
         id="g4346" /><g
         id="g4348" /><g
         id="g4350" /><g
         id="g4352" /><g
         id="g4354" /><g
         id="g4356" /></g></g></svg>