<?xml version="1.0" encoding="UTF-8" standalone="no"?>
<!-- Generator: Adobe Illustrator 18.0.0, SVG Export Plug-In . SVG Version: 6.00 Build 0)  -->

<svg
   xmlns:dc="http://purl.org/dc/elements/1.1/"
   xmlns:cc="http://creativecommons.org/ns#"
   xmlns:rdf="http://www.w3.org/1999/02/22-rdf-syntax-ns#"
   xmlns:svg="http://www.w3.org/2000/svg"
   xmlns="http://www.w3.org/2000/svg"
   xmlns:sodipodi="http://sodipodi.sourceforge.net/DTD/sodipodi-0.dtd"
   xmlns:inkscape="http://www.inkscape.org/namespaces/inkscape"
   version="1.1"
   id="Capa_1"
   x="0px"
   y="0px"
   viewBox="0 0 212.974 191.61801"
   xml:space="preserve"
   width="512"
   height="460.65915"
   inkscape:version="0.91 r13725"
   sodipodi:docname="new-tab.svg"><metadata
     id="metadata43"><rdf:RDF><cc:Work
         rdf:about=""><dc:format>image/svg+xml</dc:format><dc:type
           rdf:resource="http://purl.org/dc/dcmitype/StillImage" /><dc:title></dc:title></cc:Work></rdf:RDF></metadata><defs
     id="defs41" /><sodipodi:namedview
     pagecolor="#ffffff"
     bordercolor="#666666"
     borderopacity="1"
     objecttolerance="10"
     gridtolerance="10"
     guidetolerance="10"
     inkscape:pageopacity="0"
     inkscape:pageshadow="2"
     inkscape:window-width="1305"
     inkscape:window-height="744"
     id="namedview39"
     showgrid="false"
     fit-margin-top="0"
     fit-margin-left="0"
     fit-margin-right="0"
     fit-margin-bottom="0"
     inkscape:zoom="0.4609375"
     inkscape:cx="761.49154"
     inkscape:cy="193.44822"
     inkscape:window-x="61"
     inkscape:window-y="24"
     inkscape:window-maximized="1"
     inkscape:current-layer="g3" /><g
     id="g3"
     transform="translate(0,-10.678)"><g
       id="g4234"><path
         style="fill:#006df0"
         inkscape:connector-curvature="0"
         id="path5"
         d="m 205.474,10.678 -49.494,0 -49.493,0 -49.494,0 -49.493,0 c -4.142,0 -7.5,3.358 -7.5,7.5 L 0,64.75 0,194.796 c 0,4.142 3.358,7.5 7.5,7.5 l 197.974,0 c 4.142,0 7.5,-3.358 7.5,-7.5 l 0,-176.618 c 0,-4.142 -3.358,-7.5 -7.5,-7.5 z m -7.5,46.572 -34.494,0 0,-31.572 34.494,0 0,31.572 z m -49.494,-31.572 0,31.572 -34.493,0 0,-31.572 34.493,0 z m -83.987,31.572 0,-31.572 34.493,0 0,31.572 -34.493,0 z M 15,187.295 15,64.75 l 0,-39.072 34.493,0 0,39.072 c 0,4.142 3.358,7.5 7.5,7.5 l 49.493,0 49.493,0 41.994,0 0,115.046 -182.973,0 z" /><g
         transform="matrix(0.33055891,0,0,0.30830975,67.682418,82.121322)"
         id="g4214"><g
           id="g4172"><path
             style="fill:#006df0"
             inkscape:connector-curvature="0"
             d="m 266.422,0 -97.625,0 c -9.65,0 -17.5,7.851 -17.5,17.5 0,9.649 7.85,17.5 17.5,17.5 l 55.377,0 -92.375,92.374 c -3.307,3.305 -5.127,7.699 -5.127,12.375 0,4.676 1.819,9.069 5.125,12.371 3.306,3.309 7.699,5.13 12.375,5.13 4.674,0 9.069,-1.82 12.376,-5.127 l 92.374,-92.375 0,55.377 c 0,9.649 7.851,17.5 17.5,17.5 9.649,0 17.5,-7.851 17.5,-17.5 l 0,-97.625 c 0,-9.649 -7.851,-17.5 -17.5,-17.5 z"
             id="path4174" /><path
             style="fill:#006df0"
             inkscape:connector-curvature="0"
             d="m 201.137,253.922 -171.137,0 0,-171.137 128.711,0 30,-30 -173.711,0 c -8.284,0 -15,6.716 -15,15 l 0,201.137 c 0,8.284 6.716,15 15,15 l 201.137,0 c 8.284,0 15,-6.716 15,-15 l 0,-173.711 -30,30 0,128.711 z"
             id="path4176" /></g><g
           id="g4178" /><g
           id="g4180" /><g
           id="g4182" /><g
           id="g4184" /><g
           id="g4186" /><g
           id="g4188" /><g
           id="g4190" /><g
           id="g4192" /><g
           id="g4194" /><g
           id="g4196" /><g
           id="g4198" /><g
           id="g4200" /><g
           id="g4202" /><g
           id="g4204" /><g
           id="g4206" /></g></g></g><g
     id="g9"
     transform="translate(346.53396,4.663347)" /><g
     id="g11"
     transform="translate(346.53396,4.663347)" /><g
     id="g13"
     transform="translate(346.53396,4.663347)" /><g
     id="g15"
     transform="translate(346.53396,4.663347)" /><g
     id="g17"
     transform="translate(346.53396,4.663347)" /><g
     id="g19"
     transform="translate(346.53396,4.663347)" /><g
     id="g21"
     transform="translate(346.53396,4.663347)" /><g
     id="g23"
     transform="translate(346.53396,4.663347)" /><g
     id="g25"
     transform="translate(346.53396,4.663347)" /><g
     id="g27"
     transform="translate(346.53396,4.663347)" /><g
     id="g29"
     transform="translate(346.53396,4.663347)" /><g
     id="g31"
     transform="translate(346.53396,4.663347)" /><g
     id="g33"
     transform="translate(346.53396,4.663347)" /><g
     id="g35"
     transform="translate(346.53396,4.663347)" /><g
     id="g37"
     transform="translate(346.53396,4.663347)" /></svg>