<?xml version="1.0" encoding="iso-8859-1"?>
<!-- Generator: Adobe Illustrator 19.0.0, SVG Export Plug-In . SVG Version: 6.00 Build 0)  -->
<svg xmlns="http://www.w3.org/2000/svg" xmlns:xlink="http://www.w3.org/1999/xlink" version="1.1" id="Capa_1" x="0px" y="0px" viewBox="0 0 512 512" style="enable-background:new 0 0 512 512;" xml:space="preserve" width="512px" height="512px">
<g>
	<g>
		<path d="M485.228,229.227H435.26c-0.374-2.528-0.792-5.046-1.271-7.546c-1.04-5.424-6.277-8.975-11.704-7.938    c-5.424,1.04-8.979,6.28-7.938,11.704c0.241,1.256,0.467,2.516,0.678,3.781c1.099,6.589,1.784,13.283,2.063,20    c0.094,2.256,0.149,4.514,0.149,6.773c0,2.27-0.059,4.526-0.153,6.773c-0.282,6.782-0.984,13.457-2.083,20    c-4.118,24.536-13.787,47.213-27.683,66.682c-3.902,5.467-8.14,10.676-12.677,15.608c-3.058,3.324-6.254,6.52-9.578,9.578    c-4.931,4.537-10.141,8.775-15.608,12.677c-19.469,13.896-42.146,23.565-66.683,27.683c-6.543,1.098-13.218,1.801-20,2.083    c-2.247,0.093-4.503,0.153-6.772,0.153c-2.27,0-4.526-0.059-6.773-0.153c-6.782-0.282-13.457-0.984-20-2.083    c-24.536-4.118-47.213-13.787-66.682-27.683c-5.467-3.902-10.676-8.14-15.607-12.677c-3.324-3.058-6.52-6.254-9.578-9.578    c-4.537-4.931-8.775-10.141-12.677-15.607c-13.895-19.469-23.565-42.146-27.683-66.682c-1.098-6.543-1.801-13.218-2.083-20    c-0.093-2.247-0.153-4.503-0.153-6.773s0.059-4.526,0.153-6.773c0.282-6.782,0.984-13.457,2.083-20    c4.118-24.536,13.787-47.214,27.683-66.682c3.902-5.467,8.14-10.676,12.677-15.607c3.058-3.324,6.254-6.52,9.578-9.578    c4.931-4.537,10.141-8.775,15.607-12.677c19.469-13.895,42.146-23.565,66.682-27.683c6.543-1.098,13.218-1.801,20-2.083    c2.247-0.093,4.503-0.153,6.773-0.153c2.265,0,4.521,0.065,6.772,0.159c6.748,0.282,13.425,0.984,20,2.088    c24.178,4.061,46.962,13.557,66.725,27.629c5.449,3.88,10.665,8.108,15.619,12.665c3.314,3.048,6.516,6.235,9.583,9.572    c4.51,4.906,8.74,10.12,12.662,15.622c0.82,1.15,1.634,2.306,2.426,3.481c3.088,4.581,9.304,5.788,13.882,2.701    c4.579-3.088,5.788-9.303,2.7-13.882c-1.516-2.249-3.094-4.443-4.699-6.609l35.348-35.348c10.438-10.438,10.438-27.423,0-37.862    c-5.057-5.057-11.779-7.842-18.932-7.842c-7.151,0-13.874,2.785-18.931,7.842l-35.335,35.335    c-23.724-17.566-51.515-29.16-81.05-33.557V26.773C282.772,12.01,270.763,0,256,0s-26.773,12.01-26.773,26.773v49.973    c-30.012,4.463-57.645,16.309-80.99,33.629l-35.394-35.394c-10.439-10.439-27.424-10.439-37.862,0    c-10.439,10.438-10.439,27.423,0,37.862l35.394,35.394c-17.32,23.344-29.166,50.977-33.629,80.99H26.773    C12.01,229.227,0,241.237,0,256s12.01,26.773,26.773,26.773h49.973c4.463,30.012,16.309,57.645,33.629,80.99l-35.394,35.394    c-10.439,10.439-10.439,27.424,0,37.862c5.219,5.22,12.075,7.829,18.931,7.829c6.855,0,13.711-2.609,18.931-7.829l35.394-35.394    c23.344,17.32,50.977,29.166,80.99,33.629v49.973C229.227,499.99,241.237,512,256,512s26.772-12.01,26.772-26.773v-49.973    c30.013-4.463,57.646-16.31,80.99-33.63l35.395,35.394c5.057,5.057,11.779,7.842,18.931,7.842c7.152,0,13.875-2.785,18.932-7.842    c10.438-10.438,10.438-27.423,0-37.862l-35.395-35.395c17.32-23.344,29.166-50.977,33.629-80.989h49.973    C499.99,282.773,512,270.763,512,256S499.99,229.227,485.228,229.227z M413.3,89.123c1.279-1.279,2.979-1.983,4.788-1.983    c1.81,0,3.51,0.704,4.789,1.983c2.641,2.641,2.641,6.938,0,9.579l-34.019,34.019c-3.081-3.322-6.288-6.502-9.589-9.566    L413.3,89.123z M249.227,26.773c0-3.734,3.038-6.773,6.773-6.773c3.734,0,6.772,3.039,6.772,6.773v48.131    c-2.252-0.084-4.508-0.14-6.772-0.14c-2.269,0-4.524,0.056-6.773,0.139V26.773z M89.123,98.701c-2.641-2.641-2.641-6.938,0-9.578    c1.32-1.32,3.055-1.981,4.789-1.981s3.468,0.661,4.789,1.981l34.093,34.093c-3.31,3.073-6.505,6.268-9.578,9.578L89.123,98.701z     M74.904,262.773H26.773c-3.734,0-6.773-3.038-6.773-6.773c0-3.735,3.039-6.773,6.773-6.773h48.131    c-0.083,2.249-0.139,4.504-0.139,6.773S74.821,260.524,74.904,262.773z M98.701,422.877c-2.642,2.641-6.938,2.64-9.578,0    c-2.641-2.641-2.641-6.937,0-9.578l34.093-34.093c3.073,3.31,6.268,6.505,9.578,9.578L98.701,422.877z M262.772,485.227    c0,3.734-3.038,6.773-6.772,6.773c-3.735,0-6.773-3.039-6.773-6.773v-48.131c2.249,0.083,4.504,0.139,6.773,0.139    c2.269,0,4.524-0.056,6.772-0.139V485.227z M422.877,413.299c2.641,2.641,2.641,6.938,0,9.579    c-1.279,1.279-2.979,1.983-4.789,1.983c-1.809,0-3.509-0.704-4.788-1.984l-34.093-34.093c3.309-3.074,6.504-6.268,9.577-9.578    L422.877,413.299z M485.228,262.773h-48.132c0.083-2.249,0.139-4.504,0.139-6.773c0-2.258-0.054-4.516-0.138-6.773h48.131    c3.734,0,6.772,3.038,6.772,6.773S488.962,262.773,485.228,262.773z" fill="#006DF0"/>
	</g>
</g>
<g>
	<g>
		<path d="M398.673,249.229c-0.319-6.801-1.121-13.477-2.363-20c-3.716-19.513-11.406-37.63-22.204-53.473    c-3.791-5.561-7.96-10.845-12.476-15.808c-3.041-3.341-6.237-6.537-9.578-9.578c-4.963-4.517-10.246-8.686-15.808-12.476    c-15.843-10.798-33.96-18.489-53.471-22.204c-6.523-1.242-13.199-2.043-20-2.362c-2.245-0.105-4.502-0.165-6.772-0.165    c-2.271,0-4.528,0.059-6.773,0.165c-6.801,0.319-13.477,1.121-20,2.363c-19.511,3.715-37.628,11.406-53.471,22.204    c-5.561,3.791-10.845,7.96-15.808,12.476c-3.341,3.041-6.537,6.237-9.578,9.578c-4.517,4.963-8.686,10.246-12.477,15.808    c-10.798,15.842-18.489,33.96-22.204,53.471c-1.242,6.523-2.044,13.199-2.363,20c-0.105,2.245-0.165,4.502-0.165,6.773    c0,2.271,0.059,4.528,0.165,6.773c0.319,6.801,1.121,13.477,2.363,20c3.715,19.511,11.406,37.628,22.204,53.471    c3.791,5.561,7.96,10.845,12.476,15.808c3.041,3.341,6.237,6.538,9.578,9.578c4.963,4.517,10.246,8.686,15.808,12.476    c15.843,10.798,33.96,18.489,53.471,22.204c6.523,1.242,13.199,2.044,20,2.363c2.245,0.105,4.502,0.165,6.773,0.165    c2.271,0,4.527-0.059,6.772-0.165c6.801-0.319,13.477-1.121,20-2.362c19.511-3.715,37.629-11.406,53.471-22.204    c5.561-3.791,10.845-7.96,15.808-12.477c3.341-3.041,6.537-6.237,9.578-9.578c4.517-4.963,8.686-10.246,12.477-15.808    c10.798-15.842,18.488-33.96,22.204-53.47c1.242-6.523,2.044-13.199,2.363-20c0.105-2.245,0.165-4.502,0.165-6.773    S398.779,251.474,398.673,249.229z M359.675,190.187c7.519,11.803,13.075,24.971,16.215,39.04h-53.61    c-0.158-0.391-0.307-0.786-0.472-1.173L359.675,190.187z M337.893,164.529c3.365,3.016,6.563,6.213,9.578,9.578l-36.374,36.374    c-2.885-3.485-6.093-6.693-9.578-9.578L337.893,164.529z M282.772,136.11c14.07,3.14,27.238,8.696,39.041,16.215l-37.867,37.867    c-0.387-0.165-0.783-0.313-1.174-0.472V136.11z M249.227,133.352c2.243-0.122,4.5-0.189,6.773-0.189s4.53,0.067,6.772,0.189    v51.477c-2.231-0.211-4.488-0.33-6.772-0.33s-4.542,0.119-6.773,0.33V133.352z M229.227,136.11v53.61    c-0.391,0.158-0.786,0.307-1.173,0.471l-37.867-37.867C201.99,144.806,215.158,139.25,229.227,136.11z M174.107,164.529    l36.374,36.374c-3.485,2.885-6.693,6.093-9.578,9.578l-36.374-36.374C167.545,170.742,170.742,167.545,174.107,164.529z     M152.325,190.187l37.867,37.867c-0.165,0.387-0.313,0.783-0.472,1.173h-53.61C139.25,215.158,144.806,201.99,152.325,190.187z     M133.163,256c0-2.273,0.067-4.53,0.189-6.773h51.477c-0.211,2.231-0.33,4.488-0.33,6.773s0.119,4.542,0.33,6.773h-51.477    C133.23,260.53,133.163,258.273,133.163,256z M152.325,321.813c-7.519-11.803-13.075-24.971-16.215-39.04h53.61    c0.158,0.391,0.307,0.786,0.472,1.173L152.325,321.813z M174.107,347.471c-3.365-3.016-6.563-6.213-9.578-9.578l36.374-36.374    c2.885,3.485,6.093,6.694,9.578,9.578L174.107,347.471z M229.227,375.889c-14.069-3.139-27.237-8.695-39.04-16.214l37.867-37.867    c0.387,0.165,0.782,0.313,1.173,0.471V375.889z M262.772,378.647c-2.242,0.123-4.499,0.19-6.772,0.19s-4.53-0.067-6.773-0.19    V327.17c2.231,0.211,4.488,0.33,6.773,0.33s4.542-0.119,6.772-0.33V378.647z M268.172,306.034    c-1.766,0.43-3.568,0.765-5.399,1.007c-2.218,0.293-4.476,0.459-6.772,0.459c-2.297,0-4.555-0.167-6.773-0.459    c-1.831-0.242-3.633-0.577-5.399-1.007c-7.048-1.715-13.531-4.881-19.117-9.168c-3.596-2.76-6.818-5.982-9.578-9.578    c-1.112-1.448-2.155-2.952-3.11-4.515c-3.652-5.977-6.107-12.755-7.064-20c-0.293-2.218-0.459-4.476-0.459-6.773    c0-2.297,0.167-4.555,0.459-6.773c0.242-1.831,0.577-3.633,1.007-5.399c1.715-7.048,4.881-13.531,9.168-19.117    c2.76-3.596,5.981-6.818,9.578-9.578c5.585-4.287,12.068-7.453,19.117-9.168c1.766-0.43,3.567-0.765,5.399-1.006    c2.218-0.293,4.476-0.459,6.773-0.459s4.554,0.167,6.772,0.459c1.832,0.242,3.633,0.577,5.399,1.007    c7.048,1.715,13.531,4.881,19.117,9.168c3.596,2.76,6.818,5.982,9.578,9.578c1.112,1.448,2.155,2.952,3.11,4.515    c3.652,5.977,6.107,12.755,7.064,20c0.293,2.218,0.459,4.476,0.459,6.773s-0.167,4.555-0.459,6.773    c-0.242,1.831-0.577,3.633-1.006,5.399c-1.715,7.048-4.881,13.531-9.168,19.117c-2.761,3.596-5.983,6.817-9.579,9.577    C281.704,301.153,275.221,304.319,268.172,306.034z M282.772,375.89v-53.61c0.391-0.158,0.786-0.307,1.174-0.472l37.867,37.867    C310.01,367.194,296.842,372.75,282.772,375.89z M337.893,347.471l-36.374-36.374c3.485-2.885,6.693-6.092,9.578-9.578    l36.374,36.374C344.456,341.258,341.258,344.455,337.893,347.471z M359.675,321.812l-37.867-37.867    c0.165-0.387,0.313-0.782,0.471-1.173h53.61C372.75,296.842,367.194,310.009,359.675,321.812z M378.647,262.773H327.17    c0.211-2.231,0.33-4.488,0.33-6.773c0-2.285-0.119-4.542-0.33-6.773h51.477c0.122,2.243,0.189,4.5,0.189,6.773    S378.77,260.53,378.647,262.773z" fill="#006DF0"/>
	</g>
</g>
<g>
	<g>
		<path d="M415,181h-0.5c-5.522,0-10,4.477-10,10s4.478,10,10,10h0.5c5.522,0,10-4.477,10-10S420.522,181,415,181z" fill="#006DF0"/>
	</g>
</g>
<g>
</g>
<g>
</g>
<g>
</g>
<g>
</g>
<g>
</g>
<g>
</g>
<g>
</g>
<g>
</g>
<g>
</g>
<g>
</g>
<g>
</g>
<g>
</g>
<g>
</g>
<g>
</g>
<g>
</g>
</svg>
