<?xml version="1.0" encoding="UTF-8" standalone="no"?>
<!-- Generator: Adobe Illustrator 19.0.0, SVG Export Plug-In . SVG Version: 6.00 Build 0)  -->

<svg
   xmlns:dc="http://purl.org/dc/elements/1.1/"
   xmlns:cc="http://creativecommons.org/ns#"
   xmlns:rdf="http://www.w3.org/1999/02/22-rdf-syntax-ns#"
   xmlns:svg="http://www.w3.org/2000/svg"
   xmlns="http://www.w3.org/2000/svg"
   xmlns:sodipodi="http://sodipodi.sourceforge.net/DTD/sodipodi-0.dtd"
   xmlns:inkscape="http://www.inkscape.org/namespaces/inkscape"
   version="1.1"
   id="Capa_1"
   x="0px"
   y="0px"
   viewBox="0 0 477.28905 529.04968"
   xml:space="preserve"
   width="477.28812"
   height="529.04865"
   inkscape:version="0.91 r13725"
   sodipodi:docname="try1.svg"><metadata
     id="metadata67"><rdf:RDF><cc:Work
         rdf:about=""><dc:format>image/svg+xml</dc:format><dc:type
           rdf:resource="http://purl.org/dc/dcmitype/StillImage" /><dc:title></dc:title></cc:Work></rdf:RDF></metadata><defs
     id="defs65" /><sodipodi:namedview
     pagecolor="#ffffff"
     bordercolor="#666666"
     borderopacity="1"
     objecttolerance="10"
     gridtolerance="10"
     guidetolerance="10"
     inkscape:pageopacity="0"
     inkscape:pageshadow="2"
     inkscape:window-width="1305"
     inkscape:window-height="744"
     id="namedview63"
     showgrid="false"
     inkscape:zoom="0.4609375"
     inkscape:cx="116.06732"
     inkscape:cy="304.72876"
     inkscape:window-x="61"
     inkscape:window-y="24"
     inkscape:window-maximized="1"
     inkscape:current-layer="Capa_1"
     fit-margin-top="0"
     fit-margin-left="0"
     fit-margin-right="0"
     fit-margin-bottom="0" /><g
     id="g33"
     transform="translate(713.7636,127.71747)" /><g
     id="g35"
     transform="translate(713.7636,127.71747)" /><g
     id="g37"
     transform="translate(713.7636,127.71747)" /><g
     id="g39"
     transform="translate(713.7636,127.71747)" /><g
     id="g41"
     transform="translate(713.7636,127.71747)" /><g
     id="g43"
     transform="translate(713.7636,127.71747)" /><g
     id="g45"
     transform="translate(713.7636,127.71747)" /><g
     id="g47"
     transform="translate(713.7636,127.71747)" /><g
     id="g49"
     transform="translate(713.7636,127.71747)" /><g
     id="g51"
     transform="translate(713.7636,127.71747)" /><g
     id="g53"
     transform="translate(713.7636,127.71747)" /><g
     id="g55"
     transform="translate(713.7636,127.71747)" /><g
     id="g57"
     transform="translate(713.7636,127.71747)" /><g
     id="g59"
     transform="translate(713.7636,127.71747)" /><g
     id="g61"
     transform="translate(713.7636,127.71747)" /><g
     id="g4355"
     transform="matrix(1.1111111,0,0,1,783.42846,-251.94427)"
     inkscape:export-xdpi="90"
     inkscape:export-ydpi="90"><g
       transform="matrix(0.83898305,0,0,0.65578293,-705.08602,445.24851)"
       id="g4195"><g
         id="g3"><g
           id="g5"><path
             style="fill:#006df0"
             inkscape:connector-curvature="0"
             d="m 401.851,295.316 c 0,0 -64.599,-39.86 -64.68,-39.91 -4.649,-2.869 -10.91,-1.356 -13.77,3.259 -2.866,4.625 -1.345,10.921 3.26,13.76 0,0 64.64,39.886 64.68,39.91 4.647,2.867 10.903,1.392 13.76,-3.259 2.857,-4.652 1.401,-10.893 -3.25,-13.76 z"
             id="path7" /></g></g><g
         id="g9"><g
           id="g11"><path
             style="fill:#006df0"
             inkscape:connector-curvature="0"
             d="m 297.883,232.915 c -6.387,-0.001 -11.203,6.079 -9.743,12.295 0.581,2.476 2.283,4.725 4.525,6.145 1.539,0.975 3.333,1.56 5.196,1.56 3.499,0 6.689,-1.769 8.519,-4.748 3.898,-6.346 -1.002,-15.251 -8.497,-15.252 z"
             id="path13" /></g></g><g
         id="g15"><g
           id="g17"><path
             style="fill:#006df0"
             inkscape:connector-curvature="0"
             d="m 194.333,258.148 c -2.821,-4.493 -9.325,-5.945 -13.792,-3.123 0,0 -64.182,40.472 -64.29,40.54 -4.625,2.916 -6.036,9.164 -3.123,13.785 1.751,2.779 5.13,4.408 8.475,4.502 1.882,0.053 3.753,-0.38 5.318,-1.367 0,0 64.245,-40.521 64.29,-40.55 4.624,-2.916 6.028,-9.159 3.122,-13.787 z"
             id="path19" /></g></g><g
         id="g21"><g
           id="g23"><path
             style="fill:#006df0"
             inkscape:connector-curvature="0"
             d="m 219.691,232.145 c -4.644,0 -8.713,3.264 -9.74,7.788 -1.399,6.163 3.48,12.212 9.76,12.212 4.635,0 8.727,-3.263 9.75,-7.791 1.401,-6.2 -3.433,-12.209 -9.77,-12.209 z"
             id="path25" /></g></g><g
         id="g27"><g
           id="g29"><path
             style="fill:#006df0"
             inkscape:connector-curvature="0"
             d="m 509.548,455.464 c -3.624,-4.168 -9.94,-4.608 -14.108,-0.984 -10.663,9.271 -20.531,18.883 -34.522,22.75 -15.553,4.298 -30.334,0.906 -44.41,-6.132 l 52.079,-175.224 c 1.296,-4.359 -0.514,-9.044 -4.403,-11.401 l -48.183,-29.195 0,-85.253 c 0,-5.522 -4.477,-10 -10,-10 l -20,0 0,-30 c 0,-5.522 -4.477,-10 -10,-10 l -31.5,0 0,-30 c 0,-5.522 -4.477,-10 -10,-10 l -48.5,0 0,-70 c 0,-5.522 -4.477,-10 -10,-10 l -40,0 c -5.523,0 -10,4.478 -10,10 l 0,70 -48.5,0 c -5.523,0 -10,4.478 -10,10 l 0,30 -31.5,0 c -5.523,0 -10,4.478 -10,10 l 0,30 -20,0 c -5.523,0 -10,4.478 -10,10 l 0,85.253 -48.182,29.194 c -3.89,2.357 -5.699,7.042 -4.403,11.401 0,0 51.951,174.79 51.973,174.866 -0.887,-2.984 -16.889,-4.949 -19.718,-5.315 -29.117,-3.768 -51.258,10.818 -72.232,29.055 -4.168,3.624 -4.608,9.939 -0.985,14.107 3.459,3.978 9.896,4.646 14.107,0.985 21.608,-18.784 45.969,-33.103 74.559,-18.806 25.864,12.931 52.636,18.476 79.575,4.3 21.722,-11.434 42.684,-21.307 66.93,-9.763 l 24.927,11.87 c 21.326,10.156 45.674,9.922 66.799,-0.642 13.018,-6.509 26.249,-15.171 41.119,-16.193 14.576,-1.001 28.66,4.426 41.467,10.835 16.919,8.46 36.726,10.15 54.894,4.971 16.735,-4.771 28.914,-15.429 41.731,-26.573 4.169,-3.623 4.609,-9.938 0.986,-14.106 z m -113.547,-275.439 0,63.135 -104.198,-63.135 104.198,0 z m -150,-160 20,0 0,60 -20,0 0,-60 z m -58.5,80 137,0 0,20 -137,0 0,-20 z m -71.5,80 104.198,0 -104.198,63.135 0,-63.135 z m 130,287.115 c 0.002,-1.777 -14.255,-5.055 -16.12,-5.459 -17.404,-3.767 -36.088,-1.375 -51.866,6.93 -11.448,6.025 -22.493,13.054 -35.586,14.74 -0.024,0.003 -0.048,0.006 -0.072,0.009 -7.65,0.93 -15.48,0.367 -22.884,-1.792 L 64.786,297.577 246.001,187.777 c 0,0 0,279.352 0,279.363 z m -100,-307.115 0,-20 220,0 0,20 -220,0 z m 252.022,303.059 c 0.111,-3.094 -28.039,-3.066 -29.925,-2.867 -17.358,1.836 -32.374,10.767 -47.692,18.426 -18.096,9.048 -36.716,6.447 -54.405,-1.98 l 0,-288.886 181.215,109.8 -49.193,165.507 z"
             id="path31" /></g></g></g><g
       transform="matrix(0.512605,0,0,0.4598618,-615.89754,242.34144)"
       id="g4259"><g
         id="g4213"><g
           id="g4215"><path
             style="fill:#006df0"
             inkscape:connector-curvature="0"
             d="m 243.225,333.382 c -13.6,0 -25,11.4 -25,25 0,13.6 11.4,25 25,25 13.1,0 25,-11.4 24.4,-24.4 0.6,-14.3 -10.7,-25.6 -24.4,-25.6 z"
             id="path4217" /><path
             style="fill:#006df0"
             inkscape:connector-curvature="0"
             d="m 474.625,421.982 c 15.7,-27.1 15.8,-59.4 0.2,-86.4 l -156.6,-271.2 c -15.5,-27.3 -43.5,-43.5 -74.9,-43.5 -31.4,0 -59.4,16.3 -74.9,43.4 l -156.8,271.5 c -15.6,27.3 -15.5,59.8 0.3,86.9 15.6,26.8 43.5,42.9 74.7,42.9 l 312.8,0 c 31.3,0 59.4,-16.3 75.2,-43.6 z m -34,-19.6 c -8.7,15 -24.1,23.9 -41.3,23.9 l -312.8,0 c -17,0 -32.3,-8.7 -40.8,-23.4 -8.6,-14.9 -8.7,-32.7 -0.1,-47.7 l 156.8,-271.4 c 8.5,-14.9 23.7,-23.7 40.9,-23.7 17.1,0 32.4,8.9 40.9,23.8 l 156.7,271.4 c 8.4,14.6 8.3,32.2 -0.3,47.1 z"
             id="path4219" /><path
             style="fill:#006df0"
             inkscape:connector-curvature="0"
             d="m 237.025,157.882 c -11.9,3.4 -19.3,14.2 -19.3,27.3 0.6,7.9 1.1,15.9 1.7,23.8 1.7,30.1 3.4,59.6 5.1,89.7 0.6,10.2 8.5,17.6 18.7,17.6 10.2,0 18.2,-7.9 18.7,-18.2 0,-6.2 0,-11.9 0.6,-18.2 1.1,-19.3 2.3,-38.6 3.4,-57.9 0.6,-12.5 1.7,-25 2.3,-37.5 0,-4.5 -0.6,-8.5 -2.3,-12.5 -5.1,-11.2 -17,-16.9 -28.9,-14.1 z"
             id="path4221" /></g></g><g
         id="g4223" /><g
         id="g4225" /><g
         id="g4227" /><g
         id="g4229" /><g
         id="g4231" /><g
         id="g4233" /><g
         id="g4235" /><g
         id="g4237" /><g
         id="g4239" /><g
         id="g4241" /><g
         id="g4243" /><g
         id="g4245" /><g
         id="g4247" /><g
         id="g4249" /><g
         id="g4251" /></g></g></svg>