<?xml version="1.0" encoding="iso-8859-1"?>
<!-- Generator: Adobe Illustrator 19.0.0, SVG Export Plug-In . SVG Version: 6.00 Build 0)  -->
<svg xmlns="http://www.w3.org/2000/svg" xmlns:xlink="http://www.w3.org/1999/xlink" version="1.1" id="Capa_1" x="0px" y="0px" viewBox="0 0 512 512" style="enable-background:new 0 0 512 512;" xml:space="preserve" width="512px" height="512px">
<g>
	<g>
		<g>
			<path d="M204.294,256c0,18.196,9.74,35.261,25.419,44.533l7.635-12.912c-11.136-6.585-18.054-18.702-18.054-31.621H204.294z" fill="#006DF0"/>
			<path d="M273.21,207.229c-5.52-1.948-11.31-2.936-17.21-2.936v15c4.195,0,8.307,0.7,12.219,2.08L273.21,207.229z" fill="#006DF0"/>
			<path d="M283.711,212.341l-8.047,12.658c3.521,2.238,6.615,5.038,9.199,8.321l11.787-9.277     C293.018,219.427,288.664,215.489,283.711,212.341z" fill="#006DF0"/>
			<path d="M299.265,284.323c5.522-8.421,8.441-18.215,8.441-28.324c-0.001-7.702-1.656-15.116-4.92-22.035l-13.566,6.398     c2.313,4.903,3.485,10.165,3.486,15.638c0,7.178-2.069,14.127-5.984,20.097L299.265,284.323z" fill="#006DF0"/>
			<path d="M140.486,179.627l-12.504-8.285c-2.895,4.369-5.594,8.936-8.021,13.571l13.289,6.959     C135.44,187.688,137.875,183.568,140.486,179.627z" fill="#006DF0"/>
			<path d="M129.142,200.418l-13.736-6.025c-2.105,4.798-3.982,9.76-5.58,14.748l14.285,4.576     C125.551,209.219,127.243,204.745,129.142,200.418z" fill="#006DF0"/>
			<path d="M106.963,219.265c-1.248,5.089-2.246,10.298-2.965,15.483l14.857,2.061c0.648-4.679,1.549-9.378,2.676-13.97     L106.963,219.265z" fill="#006DF0"/>
			<path d="M176.83,387.49c17.828,10.756,37.315,17.657,57.92,20.512l2.059-14.857c-18.58-2.574-36.152-8.798-52.23-18.498     L176.83,387.49z" fill="#006DF0"/>
			<path d="M353.515,137.497c-8.608-7.091-17.997-13.248-27.907-18.3l-6.813,13.363c8.941,4.558,17.413,10.114,25.183,16.515     L353.515,137.497z" fill="#006DF0"/>
			<path d="M291.12,106.576c-5.096-1.192-10.315-2.134-15.515-2.798l-1.9,14.879c4.691,0.599,9.4,1.448,13.997,2.524L291.12,106.576     z" fill="#006DF0"/>
			<path d="M316.08,114.745c-4.824-2.054-9.807-3.877-14.809-5.42l-4.42,14.334c4.51,1.391,9.003,3.035,13.354,4.887L316.08,114.745     z" fill="#006DF0"/>
			<path d="M285.507,202.994l4.953,2.771l52.803-52.803l-6.966-5.182c-17.779-13.225-38.716-21.916-60.547-25.137l-8.595-1.268     v74.71l5.446,1.551C277.101,198.918,281.442,200.721,285.507,202.994z M282.154,139.08L282.154,139.08     c13.437,3.015,26.334,8.373,37.994,15.783l-32.433,32.433c-1.82-0.843-3.676-1.613-5.561-2.308V139.08z" fill="#006DF0"/>
			<path d="M477.5,221.5c-8.37,0-16.24,2.94-22.492,8.344H426.12c-4.188-27.336-14.938-53.229-31.382-75.593l20.476-20.476     c8.241-0.599,15.887-4.085,21.806-10.004c13.451-13.452,13.451-35.339,0-48.791c-13.451-13.451-35.339-13.45-48.79,0     c-5.921,5.919-9.406,13.563-10.005,21.807l-20.476,20.475c-22.363-16.444-48.258-27.194-75.594-31.382V56.993     c5.404-6.252,8.345-14.122,8.345-22.493C290.5,15.477,275.023,0,256,0s-34.5,15.477-34.5,34.5c0,8.371,2.94,16.241,8.345,22.493     V85.88c-27.336,4.188-53.23,14.938-75.594,31.382l-20.476-20.475c-0.599-8.243-4.084-15.888-10.004-21.807     c-13.453-13.451-35.338-13.451-48.791,0c-13.451,13.452-13.451,35.339,0,48.79c5.92,5.921,13.563,9.406,21.807,10.005     l20.475,20.476c-16.444,22.363-27.194,48.257-31.382,75.593H56.992C50.74,224.44,42.87,221.5,34.5,221.5     C15.477,221.5,0,236.977,0,256s15.477,34.5,34.5,34.5c8.371,0,16.241-2.94,22.493-8.345H85.88     c4.188,27.336,14.938,53.229,31.382,75.594l-20.476,20.476c-8.241,0.599-15.887,4.085-21.806,10.004     c-13.451,13.452-13.451,35.339,0,48.791c13.452,13.452,35.34,13.451,48.79,0c5.921-5.919,9.406-13.563,10.005-21.807     l20.476-20.475c22.363,16.444,48.258,27.194,75.594,31.382v28.887c-5.404,6.252-8.345,14.122-8.345,22.493     c0,19.023,15.477,34.5,34.5,34.5s34.5-15.477,34.5-34.5c0-8.371-2.94-16.241-8.345-22.493V426.12     c27.336-4.188,53.23-14.938,75.594-31.382l20.476,20.475c0.599,8.243,4.084,15.888,10.004,21.807     c13.453,13.451,35.338,13.451,48.791,0c13.451-13.452,13.451-35.339,0-48.79c-5.919-5.921-13.563-9.406-21.806-10.005     l-20.476-20.476c16.444-22.364,27.194-48.258,31.382-75.594h28.887c6.252,5.404,14.122,8.345,22.493,8.345     c19.023,0,34.5-15.477,34.5-34.5S496.523,221.5,477.5,221.5z M477.5,275.5c-4.425,0-8.592-1.477-12.008-4.169V256h-15v11.155     h-37.636l-0.754,6.655c-3.309,29.197-14.781,56.834-33.178,79.923l-4.176,5.24l26.666,26.665l-9.008,9.008l10.607,10.607     l11.963-11.963c4.297,0.511,8.311,2.419,11.436,5.545c7.604,7.603,7.604,19.974,0,27.576c-7.601,7.604-19.973,7.604-27.577,0     c-3.794-3.794-5.817-8.846-5.698-14.225l0.071-3.204l-34.235-34.234l-5.239,4.176c-23.089,18.396-50.726,29.869-79.923,33.178     l-6.655,0.754v48.34l2.315,2.215c3.888,3.72,6.029,8.724,6.029,14.089c0,10.752-8.748,19.5-19.5,19.5s-19.5-8.748-19.5-19.5     c0-4.425,1.477-8.592,4.169-12.008H256v-15h-11.155v-37.636l-6.655-0.754c-29.197-3.309-56.834-14.781-79.923-33.178     l-5.239-4.176l-26.666,26.665l-10.389-10.388l-10.605,10.607l13.34,13.339c-0.511,4.319-2.413,8.31-5.543,11.439     c-7.602,7.604-19.975,7.604-27.576,0c-7.604-7.603-7.604-19.974,0-27.577c3.794-3.796,8.865-5.805,14.224-5.698l3.204,0.071     l34.235-34.234l-4.176-5.24c-18.396-23.089-29.869-50.726-33.178-79.923l-0.754-6.655h-48.34l-2.215,2.315     c-3.72,3.888-8.724,6.029-14.089,6.029c-10.752,0-19.5-8.748-19.5-19.5s8.748-19.5,19.5-19.5c4.425,0,8.592,1.477,12.008,4.169     V256h15v-11.156h37.636l0.754-6.655c3.309-29.197,14.781-56.834,33.178-79.922l4.176-5.239l-26.665-26.666l9.138-9.139     l-10.607-10.605l-12.09,12.091c-4.315-0.511-8.31-2.416-11.438-5.544c-7.604-7.603-7.604-19.974,0-27.576     c7.602-7.602,19.974-7.604,27.577,0c3.794,3.794,5.817,8.846,5.698,14.225l-0.071,3.204l34.235,34.234l5.239-4.176     c23.089-18.396,50.726-29.869,79.923-33.178l6.655-0.754V61.508H256v-15h-15.331c-2.692-3.416-4.169-7.583-4.169-12.008     c0-10.752,8.748-19.5,19.5-19.5s19.5,8.748,19.5,19.5c0,5.365-2.142,10.369-6.029,14.089l-2.315,2.215v48.34l6.655,0.754     c29.197,3.309,56.834,14.781,79.923,33.178l5.239,4.176l34.235-34.234l-0.071-3.204c-0.119-5.379,1.904-10.431,5.699-14.225     c7.602-7.604,19.975-7.604,27.576,0c7.604,7.603,7.604,19.974,0,27.577c-3.129,3.129-7.139,5.013-11.447,5.533l-11.832-11.832     l-10.607,10.607l8.888,8.888l-26.666,26.665l4.176,5.24c18.396,23.088,29.869,50.725,33.178,79.922l0.754,6.655h48.34     l2.215-2.314c3.72-3.889,8.724-6.029,14.089-6.029c10.752,0,19.5,8.748,19.5,19.5S488.252,275.5,477.5,275.5z" fill="#006DF0"/>
			<path d="M197.637,239.399c1.281-4.499,3.084-8.842,5.357-12.905l0.075-0.135c5.461-9.71,13.517-17.777,23.221-23.251l0.203-0.114     c4.064-2.273,8.406-4.076,12.905-5.357l5.446-1.551v-74.71l-8.595,1.268c-21.831,3.221-42.768,11.912-60.547,25.137l-6.966,5.182     l42.324,42.324c-6.007,4.454-11.322,9.768-15.776,15.775l-42.324-42.324l-5.182,6.966     c-13.225,17.779-21.916,38.716-25.137,60.546l-1.265,8.594h74.71L197.637,239.399z M191.851,154.863     c11.661-7.41,24.558-12.768,37.994-15.783v45.908c-1.885,0.694-3.74,1.465-5.561,2.308L191.851,154.863z M184.988,229.845H139.08     c3.015-13.437,8.373-26.333,15.783-37.993l32.433,32.433C186.453,226.105,185.684,227.961,184.988,229.845z" fill="#006DF0"/>
			<path d="M309.006,226.493c2.271,4.061,4.074,8.403,5.357,12.906l1.552,5.444h74.709l-1.268-8.595     c-3.22-21.829-11.912-42.766-25.136-60.545l-5.182-6.966l-52.803,52.803L309.006,226.493z M357.137,191.851     c7.41,11.66,12.769,24.557,15.783,37.992h-45.908v0.001c-0.695-1.885-1.466-3.74-2.308-5.56L357.137,191.851z" fill="#006DF0"/>
			<path d="M314.363,272.6c-1.283,4.504-3.086,8.847-5.357,12.907l-2.771,4.953l52.803,52.803l5.182-6.966     c13.225-17.779,21.916-38.716,25.137-60.547l1.268-8.595h-74.709L314.363,272.6z M327.012,282.155h45.908     c-3.015,13.436-8.373,26.333-15.783,37.993l-32.433-32.433C325.546,285.896,326.316,284.04,327.012,282.155z" fill="#006DF0"/>
			<path d="M202.994,285.507c-2.273-4.064-4.076-8.406-5.357-12.905l-1.551-5.446h-74.71l1.268,8.595     c3.221,21.831,11.912,42.768,25.137,60.547l5.182,6.966l52.803-52.803L202.994,285.507z M154.863,320.148     c-7.41-11.66-12.769-24.558-15.783-37.993h45.908c0.694,1.885,1.465,3.74,2.308,5.561L154.863,320.148z" fill="#006DF0"/>
			<path d="M285.507,309.006c-4.061,2.271-8.403,4.074-12.907,5.357l-5.444,1.552v74.709l8.595-1.268     c21.831-3.221,42.768-11.912,60.547-25.137l6.966-5.182l-52.803-52.803L285.507,309.006z M282.155,372.92v-45.908     c1.885-0.695,3.74-1.466,5.561-2.308l32.433,32.433C308.488,364.547,295.591,369.905,282.155,372.92z" fill="#006DF0"/>
			<path d="M283.721,256c0-15.285-12.436-27.721-27.721-27.721c-15.285,0-27.721,12.436-27.721,27.721     c0,15.285,12.436,27.721,27.721,27.721S283.721,271.285,283.721,256z M256,268.721c-7.015,0-12.721-5.706-12.721-12.721     s5.706-12.721,12.721-12.721s12.721,5.706,12.721,12.721S263.015,268.721,256,268.721z" fill="#006DF0"/>
			<path d="M244.845,315.915l-5.444-1.552c-4.504-1.283-8.847-3.086-12.907-5.357l-4.953-2.771l-52.803,52.803l6.966,5.182     c17.779,13.225,38.716,21.916,60.547,25.137l8.595,1.268V330.92c3.682,0.546,7.409,0.83,11.155,0.83     c1.843,0,3.71-0.067,5.548-0.201l-1.088-14.961C255.129,316.975,250.064,316.912,244.845,315.915z M229.846,372.92     L229.846,372.92c-13.437-3.015-26.334-8.373-37.994-15.783l32.433-32.433c1.82,0.842,3.676,1.612,5.561,2.308V372.92z" fill="#006DF0"/>
		</g>
	</g>
</g>
<g>
</g>
<g>
</g>
<g>
</g>
<g>
</g>
<g>
</g>
<g>
</g>
<g>
</g>
<g>
</g>
<g>
</g>
<g>
</g>
<g>
</g>
<g>
</g>
<g>
</g>
<g>
</g>
<g>
</g>
</svg>
